<svg width="602" height="444" viewBox="0 0 602 444" fill="none" xmlns="http://www.w3.org/2000/svg">
<path d="M133.882 122.261L21.6816 197.316L132.199 362.53L244.4 287.475L133.882 122.261Z" fill="#F5F5F5"/>
<path d="M186.419 279.659L185.149 287.539L129.369 279.499L130.639 271.619L186.419 279.659Z" fill="#E0E0E0"/>
<path d="M158.329 251.551L166.329 252.701L157.459 307.621L149.449 306.461L158.329 251.551Z" fill="#E0E0E0"/>
<path d="M106.999 181.749C107.079 181.859 95.8387 189.529 81.8887 198.849C67.9387 208.169 56.5687 215.649 56.4887 215.529C56.4087 215.409 67.6487 207.749 81.5987 198.419C95.5487 189.089 106.869 181.629 106.999 181.749Z" fill="#E0E0E0"/>
<path d="M148.219 171.39C148.299 171.51 129.599 184.15 106.459 199.63C83.3186 215.11 64.4586 227.56 64.3986 227.45C64.3386 227.34 82.9986 214.68 106.169 199.2C129.339 183.72 148.139 171.27 148.219 171.39Z" fill="#E0E0E0"/>
<path d="M156.49 183.751C156.57 183.871 137.87 196.521 114.73 212.001C91.5901 227.481 72.7301 239.931 72.6701 239.811C72.6101 239.691 91.2901 227.051 114.44 211.561C137.59 196.071 156.41 183.631 156.49 183.751Z" fill="#E0E0E0"/>
<path d="M164.76 196.12C164.84 196.24 146.14 208.89 123 224.36C99.86 239.83 81 252.3 81 252.18C81 252.06 99.61 239.41 122.76 223.93C145.91 208.45 164.68 196 164.76 196.12Z" fill="#E0E0E0"/>
<path d="M173 208.489C173.08 208.609 154.38 221.249 131.24 236.729C108.1 252.209 89.2396 264.659 89.1896 264.539C89.1396 264.419 107.83 251.779 131 236.299C154.17 220.819 173 208.369 173 208.489Z" fill="#E0E0E0"/>
<path d="M509.069 232.966L414.838 296L507.652 434.749L601.883 371.714L509.069 232.966Z" fill="#F5F5F5"/>
<path d="M553.199 365.18L552.129 371.8L505.279 365.05L506.359 358.43L553.199 365.18Z" fill="#E0E0E0"/>
<path d="M529.608 341.57L536.328 342.54L528.878 388.66L522.148 387.69L529.608 341.57Z" fill="#E0E0E0"/>
<path d="M486.46 282.999C486.54 283.119 477.11 289.569 465.39 297.399C453.67 305.229 444.11 311.489 444.03 311.399C443.95 311.309 453.39 304.839 465.1 296.999C476.81 289.159 486.38 282.829 486.46 282.999Z" fill="#E0E0E0"/>
<path d="M521.11 274.249C521.19 274.369 505.5 285.009 486.11 297.999C466.72 310.989 450.85 321.449 450.77 321.329C450.69 321.209 466.38 310.569 485.77 297.569C505.16 284.569 521 274.129 521.11 274.249Z" fill="#E0E0E0"/>
<path d="M528.059 284.63C528.139 284.75 512.449 295.39 493.059 308.39C473.669 321.39 457.799 331.83 457.719 331.71C457.639 331.59 473.279 321 492.719 308C512.159 295 527.999 284.52 528.059 284.63Z" fill="#E0E0E0"/>
<path d="M534.999 295.001C535.079 295.121 519.379 305.761 499.999 318.761C480.619 331.761 464.739 342.201 464.659 342.081C464.579 341.961 480.269 331.331 499.659 318.321C519.049 305.311 534.929 294.901 534.999 295.001Z" fill="#E0E0E0"/>
<path d="M541.999 305.409C542.079 305.529 526.389 316.159 506.999 329.159C487.609 342.159 471.739 352.599 471.659 352.489C471.579 352.379 487.269 341.729 506.659 328.729C526.049 315.729 541.869 305.289 541.999 305.409Z" fill="#E0E0E0"/>
<path d="M359.991 128.339L257.174 73.3477L176.2 224.744L279.018 279.735L359.991 128.339Z" fill="#F5F5F5"/>
<path d="M261.42 232.37L254.9 234.6L238.34 188.83L244.87 186.59L261.42 232.37Z" fill="#E0E0E0"/>
<path d="M271.419 199.529L273.799 206.099L228.339 221.669L225.959 215.099L271.419 199.529Z" fill="#E0E0E0"/>
<path d="M303.72 131.999C303.64 132.149 293.22 126.729 280.43 119.899C267.64 113.069 257.35 107.399 257.43 107.249C257.51 107.099 267.94 112.519 280.73 119.349C293.52 126.179 303.8 131.839 303.72 131.999Z" fill="#E0E0E0"/>
<path d="M328.4 159.23C328.32 159.38 311.06 150.3 289.85 138.96C268.64 127.62 251.52 118.3 251.6 118.15C251.68 118 268.93 127.07 290.14 138.42C311.35 149.77 328.48 159.08 328.4 159.23Z" fill="#E0E0E0"/>
<path d="M322.339 170.56C322.259 170.71 304.999 161.64 283.789 150.29C262.579 138.94 245.459 129.63 245.539 129.48C245.619 129.33 262.869 138.41 284.079 149.75C305.289 161.09 322.419 170.41 322.339 170.56Z" fill="#E0E0E0"/>
<path d="M316.279 181.889C316.199 182.039 298.939 172.969 277.729 161.629C256.519 150.289 239.399 140.999 239.479 140.819C239.559 140.639 256.809 149.739 278.019 161.079C299.229 172.419 316.359 181.739 316.279 181.889Z" fill="#E0E0E0"/>
<path d="M310.22 193.22C310.14 193.37 292.88 184.3 271.67 172.96C250.46 161.62 233.33 152.3 233.42 152.15C233.51 152 250.75 161.07 271.96 172.41C293.17 183.75 310.3 193.07 310.22 193.22Z" fill="#E0E0E0"/>
<path opacity="0.2" d="M310.75 0H308.17V43.98H310.75V0Z" fill="black"/>
<path d="M249.23 97.19H369.69C369.69 97.19 358.57 44 308.55 44C264.06 44 249.23 97.19 249.23 97.19Z" fill="#FF223F"/>
<path d="M310.75 0H308.17V43.98H310.75V0Z" fill="#FF223F"/>
<path d="M577.67 439.83C577.67 439.97 448.42 440.09 289.01 440.09C129.6 440.09 0.330078 440 0.330078 439.83C0.330078 439.66 129.56 439.57 289.01 439.57C448.46 439.57 577.67 439.68 577.67 439.83Z" fill="#263238"/>
<path d="M32.2899 377.199C33.9806 377.321 35.6294 377.783 37.1379 378.556C38.6464 379.329 39.9836 380.398 41.0699 381.699C43.2297 384.317 44.7591 387.397 45.5399 390.699C47.2299 397.019 46.1899 404.489 44.3899 410.779C37.5499 408.329 33.3199 401.029 31.3899 397.189C28.3899 391.129 26.5999 378.329 32.2599 377.189" fill="#FF223F"/>
<path d="M54.2392 418.449C53.2121 416.856 52.6247 415.02 52.5369 413.126C52.4491 411.233 52.8639 409.35 53.7392 407.669C54.6419 406.004 55.8673 404.535 57.3439 403.349C58.8205 402.162 60.5186 401.282 62.3392 400.759C64.0092 400.239 65.9492 400.029 67.3992 400.999C68.0528 401.493 68.5619 402.154 68.8732 402.912C69.1845 403.67 69.2868 404.498 69.1692 405.309C68.9067 406.934 68.2164 408.459 67.1692 409.729C63.8392 414.239 59.7992 417.989 54.1692 418.449" fill="#FF223F"/>
<path d="M54.9986 439.579C54.8502 439.154 54.7463 438.715 54.6886 438.269C54.5086 437.329 54.2686 436.119 53.9786 434.669C53.0809 430.699 52.8311 426.609 53.2386 422.559C53.7101 418.489 55.2602 414.619 57.7286 411.349C58.4827 410.371 59.3524 409.488 60.3186 408.719C60.5811 408.511 60.8548 408.317 61.1386 408.139C61.2288 408.064 61.33 408.003 61.4386 407.959C60.1736 409.04 59.0181 410.242 57.9886 411.549C55.6503 414.822 54.178 418.634 53.7086 422.629C53.0686 427.289 53.8586 431.559 54.3186 434.629C54.5586 436.159 54.7586 437.399 54.8686 438.259C54.9473 438.695 54.9908 439.136 54.9986 439.579Z" fill="#263238"/>
<path d="M34.4902 386.83C34.6044 386.988 34.6985 387.159 34.7702 387.34C34.9502 387.74 35.1902 388.24 35.4702 388.87C36.0802 390.2 36.9302 392.13 37.9602 394.52C40.0202 399.31 42.7802 405.97 45.6602 413.39C48.5402 420.81 50.9902 427.58 52.6602 432.51C53.5202 434.97 54.1902 436.97 54.6602 438.36C54.8702 439.02 55.0302 439.55 55.1602 439.96C55.2316 440.144 55.2819 440.335 55.3102 440.53C55.2088 440.36 55.1283 440.179 55.0702 439.99C54.9202 439.59 54.7302 439.07 54.4802 438.42L52.3702 432.62C50.5802 427.73 48.0802 420.97 45.2102 413.56C42.3402 406.15 39.6202 399.47 37.6402 394.65C36.6402 392.28 35.8702 390.35 35.3002 388.94C35.0402 388.3 34.8302 387.79 34.6702 387.38C34.5951 387.202 34.5349 387.018 34.4902 386.83Z" fill="#263238"/>
<path d="M46.8694 425.6C44.8117 422.174 41.9683 419.287 38.574 417.178C35.1797 415.068 31.3322 413.797 27.3494 413.47C25.3494 413.33 22.8894 413.67 21.9894 415.47C21.0894 417.27 22.2894 419.47 23.6694 420.93C26.6015 423.997 30.3759 426.127 34.5171 427.053C38.6582 427.978 42.9806 427.657 46.9394 426.13" fill="#FF223F"/>
<path d="M30.4297 418.89C30.8537 418.869 31.2787 418.885 31.6997 418.94C32.1927 418.966 32.6837 419.023 33.1697 419.11C33.7397 419.22 34.4097 419.28 35.1097 419.48C35.8922 419.645 36.6636 419.859 37.4197 420.12C38.2957 420.401 39.1539 420.735 39.9897 421.12C41.9122 421.981 43.7305 423.058 45.4097 424.33C47.0695 425.632 48.5729 427.122 49.8897 428.77C50.4584 429.487 50.9827 430.238 51.4597 431.02C51.8909 431.694 52.2848 432.392 52.6397 433.11C52.9402 433.694 53.2073 434.295 53.4397 434.91C53.6402 435.365 53.8106 435.832 53.9497 436.31C54.0978 436.708 54.2083 437.12 54.2797 437.54C54.1697 437.54 53.6897 435.82 52.3397 433.26C51.9721 432.572 51.5682 431.904 51.1297 431.26C50.6424 430.502 50.115 429.771 49.5497 429.07C46.9341 425.838 43.5986 423.262 39.8097 421.55C38.9397 421.17 38.1097 420.81 37.2997 420.55C36.5561 420.279 35.7983 420.048 35.0297 419.86C32.2297 419.09 30.4197 419 30.4297 418.89Z" fill="#263238"/>
<path d="M484.359 105.48C481.419 106.15 479.989 109.54 479.709 112.54C479.429 115.54 479.809 118.72 478.549 121.46C477.129 124.54 473.739 126.82 473.629 130.21C473.559 132.28 474.789 134.21 474.729 136.3C474.629 139.7 471.169 142.3 470.979 145.66C470.849 148.11 472.479 150.45 472.089 152.87C471.789 154.75 470.319 156.23 469.699 158.03C468.469 161.63 470.939 165.58 474.149 167.6C475.947 168.731 477.971 169.455 480.078 169.723C482.185 169.99 484.326 169.794 486.349 169.148C488.373 168.503 490.231 167.423 491.794 165.985C493.357 164.546 494.588 162.784 495.399 160.82C497.179 156.5 496.789 151.63 496.399 146.98C495.199 132.474 494.305 117.947 493.719 103.4" fill="#263238"/>
<path d="M475.818 156.66C476.423 156.284 476.895 155.728 477.168 155.07C477.457 154.287 477.573 153.452 477.508 152.62C477.399 151.517 477.154 150.433 476.778 149.39C476.3 148.08 476.122 146.678 476.258 145.29C476.508 143.73 477.628 142.45 478.638 141.19C479.182 140.573 479.637 139.883 479.988 139.14C480.341 138.388 480.398 137.532 480.148 136.74C479.628 135.11 478.028 133.91 477.298 132.02C476.955 131.084 476.9 130.068 477.138 129.1C477.365 128.193 477.701 127.317 478.138 126.49C478.983 125.002 479.654 123.421 480.138 121.78C480.838 118.61 480.508 115.58 480.988 113.09C481.255 111.096 482.139 109.235 483.518 107.77C483.908 107.375 484.353 107.039 484.838 106.77C485.006 106.683 485.184 106.619 485.368 106.58C484.742 106.925 484.166 107.356 483.658 107.86C482.381 109.34 481.576 111.169 481.348 113.11C481.173 114.436 481.079 115.772 481.068 117.11C481.065 118.685 480.911 120.255 480.608 121.8C480.131 123.479 479.46 125.097 478.608 126.62C477.858 128.19 477.168 130.03 477.828 131.75C478.488 133.47 480.078 134.66 480.688 136.5C480.964 137.409 480.896 138.388 480.498 139.25C480.109 140.068 479.604 140.826 478.998 141.5C477.998 142.76 476.908 143.96 476.668 145.36C476.528 146.688 476.685 148.03 477.128 149.29C477.486 150.365 477.707 151.48 477.788 152.61C477.838 153.48 477.684 154.35 477.338 155.15C477.123 155.652 476.778 156.087 476.338 156.41C476.182 156.525 476.006 156.609 475.818 156.66Z" fill="#455A64"/>
<path d="M467.998 180.369L458.998 206.369L421.358 208.369L415.078 222.369L454.378 226.369C456.235 227.131 458.227 227.509 460.234 227.48C462.241 227.451 464.221 227.015 466.055 226.199C467.889 225.383 469.538 224.204 470.903 222.733C472.268 221.262 473.321 219.529 473.998 217.639L484.488 188.359L467.998 180.369Z" fill="#B78876"/>
<path d="M545.809 425.7C545.809 425.7 518.229 338.08 517.639 335.24C517.109 332.66 527.639 269.61 528.979 253.24L491.709 254.63V255L475.869 255.88L490.049 435H507.199L505.499 375.55C516.079 403.94 531.239 432.88 531.239 432.88L545.809 425.7Z" fill="#B78876"/>
<path d="M506.199 396.879C506.199 396.339 505.989 376.959 505.989 376.959C505.779 378.119 499.419 360.139 499.569 359.049C499.649 358.479 506.199 396.879 506.199 396.879Z" fill="#A36957"/>
<path d="M498.849 350.529C498.761 350.886 498.724 351.253 498.739 351.619C498.683 352.619 498.683 353.62 498.739 354.619C498.739 355.249 498.829 355.929 498.909 356.669C498.989 357.409 499.099 358.189 499.269 358.999C499.624 360.768 500.095 362.512 500.679 364.219C501.919 367.849 503.299 371.019 504.269 373.319C504.729 374.319 505.129 375.269 505.469 376.029C505.591 376.383 505.759 376.719 505.969 377.029C505.915 376.684 505.814 376.347 505.669 376.029C505.439 375.369 505.089 374.419 504.669 373.249C503.789 370.909 502.469 367.709 501.239 364.119C500.657 362.437 500.179 360.72 499.809 358.979C499.629 358.179 499.509 357.409 499.399 356.689C499.289 355.969 499.209 355.289 499.159 354.689C499.039 353.449 498.989 352.449 498.959 351.749C498.978 351.34 498.941 350.929 498.849 350.529Z" fill="#A36957"/>
<path d="M489.73 435.909V434.299L507.3 433.529L507.35 440.179L506.27 440.249C501.44 440.529 481.72 441.349 478.5 440.379C474.89 439.299 489.73 435.909 489.73 435.909Z" fill="#455A64"/>
<path d="M507.58 439.779C507.48 439.786 507.38 439.786 507.28 439.779L506.42 439.839L503.24 439.979C500.56 440.089 496.85 440.189 492.76 440.209C488.67 440.229 484.95 440.159 482.26 440.079L479.09 439.949H478.22H477.92C478.02 439.941 478.12 439.941 478.22 439.949H479.09L482.27 440.009C484.95 440.009 488.66 440.089 492.75 440.069C496.84 440.049 500.56 439.979 503.24 439.909L506.42 439.829H507.58V439.779Z" fill="#263238"/>
<path d="M483.999 440.339C483.853 439.816 483.652 439.31 483.399 438.829C483.082 438.386 482.716 437.98 482.309 437.619C482.854 437.814 483.308 438.207 483.579 438.719C483.909 439.191 484.058 439.766 483.999 440.339Z" fill="#263238"/>
<path d="M489.179 437.71C489.179 437.71 488.889 437.44 488.629 437.04C488.369 436.64 488.209 436.29 488.259 436.26C488.309 436.23 488.549 436.52 488.809 436.92C489.069 437.32 489.229 437.68 489.179 437.71Z" fill="#263238"/>
<path d="M490.599 437.001C490.599 437.051 490.279 436.861 489.979 436.591C489.679 436.321 489.459 436.071 489.499 436.031C489.539 435.991 489.819 436.171 490.119 436.441C490.419 436.711 490.639 436.911 490.599 437.001Z" fill="#263238"/>
<path d="M491.488 435.3C491.194 435.408 490.88 435.449 490.568 435.42C490.262 435.46 489.951 435.43 489.658 435.33C489.949 435.223 490.26 435.182 490.568 435.21C490.878 435.168 491.193 435.198 491.488 435.3Z" fill="#263238"/>
<path d="M491.789 434.139C491.491 434.333 491.144 434.437 490.789 434.439C490.449 434.484 490.104 434.436 489.789 434.299C490.119 434.244 490.454 434.217 490.789 434.219C491.119 434.161 491.454 434.134 491.789 434.139Z" fill="#263238"/>
<path d="M488.589 436.181C488.216 436.251 487.833 436.251 487.459 436.181C487.055 436.132 486.657 436.045 486.269 435.921C486.029 435.854 485.798 435.76 485.579 435.641C485.446 435.562 485.347 435.438 485.299 435.291C485.281 435.207 485.287 435.12 485.317 435.04C485.348 434.961 485.4 434.891 485.469 434.841C485.746 434.707 486.05 434.636 486.357 434.633C486.665 434.63 486.97 434.696 487.249 434.825C487.528 434.954 487.775 435.143 487.973 435.38C488.17 435.616 488.312 435.893 488.389 436.191C488.409 436.29 488.409 436.392 488.389 436.491C488.276 436.129 488.1 435.791 487.869 435.491C487.603 435.191 487.256 434.976 486.869 434.871C486.427 434.728 485.946 434.764 485.529 434.971C485.359 435.101 485.429 435.311 485.619 435.431C485.824 435.541 486.038 435.632 486.259 435.701C486.635 435.824 487.02 435.921 487.409 435.991C488.159 436.151 488.589 436.151 488.589 436.181Z" fill="#263238"/>
<path d="M488.299 436.241C488.153 436.008 488.103 435.729 488.159 435.461C488.196 435.166 488.302 434.885 488.469 434.641C488.563 434.474 488.697 434.333 488.86 434.231C489.022 434.13 489.208 434.071 489.399 434.061C489.512 434.087 489.611 434.155 489.676 434.252C489.741 434.348 489.767 434.466 489.749 434.581C489.724 434.759 489.66 434.93 489.559 435.081C489.407 435.329 489.23 435.56 489.029 435.771C488.855 435.97 488.636 436.124 488.389 436.221C488.389 436.221 488.609 436.021 488.919 435.661C489.099 435.454 489.256 435.23 489.389 434.991C489.539 434.751 489.649 434.321 489.389 434.271C489.129 434.221 488.829 434.531 488.659 434.751C488.5 434.967 488.391 435.217 488.339 435.481C488.298 435.732 488.285 435.987 488.299 436.241Z" fill="#263238"/>
<path d="M507.209 435.001C507.209 435.001 506.709 435.001 505.919 435.051C504.891 435.174 503.917 435.583 503.109 436.232C502.302 436.881 501.692 437.743 501.349 438.721C501.089 439.471 501.069 439.981 501.029 439.971C500.989 439.961 501.029 439.841 501.029 439.621C501.055 439.299 501.115 438.98 501.209 438.671C501.528 437.647 502.14 436.74 502.969 436.061C503.81 435.394 504.83 434.994 505.899 434.911C506.232 434.871 506.567 434.871 506.899 434.911C507.006 434.927 507.11 434.958 507.209 435.001Z" fill="#263238"/>
<path d="M498.799 438.38C497.961 438.575 497.1 438.659 496.239 438.63C495.383 438.673 494.526 438.599 493.689 438.41C493.689 438.35 494.829 438.41 496.239 438.41C497.649 438.41 498.789 438.32 498.799 438.38Z" fill="#263238"/>
<path d="M502.219 438.349C502.219 438.349 502.129 438.589 502.009 438.849C501.889 439.109 501.829 439.349 501.769 439.339C501.709 439.329 501.679 439.069 501.819 438.759C501.959 438.449 502.179 438.299 502.219 438.349Z" fill="#263238"/>
<path d="M503.509 436.741C503.509 436.741 503.439 436.961 503.259 437.141C503.079 437.321 502.899 437.441 502.849 437.401C502.799 437.361 502.919 437.181 503.099 436.991C503.279 436.801 503.459 436.691 503.509 436.741Z" fill="#263238"/>
<path d="M505.349 436C505.349 436.06 505.109 436.06 504.849 436.15C504.589 436.24 504.409 436.38 504.359 436.34C504.309 436.3 504.459 436.06 504.779 435.95C505.099 435.84 505.369 435.94 505.349 436Z" fill="#263238"/>
<path d="M506.659 435.639C506.659 435.699 506.589 435.789 506.439 435.839C506.289 435.889 506.159 435.899 506.139 435.839C506.119 435.779 506.219 435.689 506.359 435.639C506.499 435.589 506.639 435.589 506.659 435.639Z" fill="#263238"/>
<path d="M530.888 434.36L530.228 432.89L545.938 425L548.708 431L547.708 431.51C543.418 433.74 525.768 442.56 522.428 443C518.738 443.53 530.888 434.36 530.888 434.36Z" fill="#455A64"/>
<path d="M548.77 430.57L548.51 430.73L547.74 431.13L544.9 432.57C542.5 433.76 539.16 435.37 535.43 437.07C531.7 438.77 528.28 440.22 525.8 441.25L522.85 442.44L522.05 442.75C521.958 442.793 521.86 442.823 521.76 442.84L522.03 442.71L522.82 442.36L525.74 441.11C528.21 440.05 531.61 438.57 535.34 436.87C539.07 435.17 542.42 433.59 544.84 432.43L547.7 431.06L548.49 430.69L548.77 430.57Z" fill="#263238"/>
<path d="M527.519 440.74C527.173 440.318 526.78 439.935 526.349 439.6C525.88 439.322 525.38 439.1 524.859 438.94C525.434 438.932 525.996 439.1 526.472 439.422C526.948 439.744 527.313 440.204 527.519 440.74Z" fill="#263238"/>
<path d="M531.13 436.22C531.13 436.22 530.75 436.1 530.35 435.84C529.95 435.58 529.66 435.33 529.69 435.28C529.72 435.23 530.07 435.4 530.47 435.66C530.87 435.92 531.16 436.17 531.13 436.22Z" fill="#263238"/>
<path d="M532.109 434.999C532.109 435.049 531.769 434.999 531.379 434.879C530.989 434.759 530.699 434.609 530.709 434.549C530.962 434.526 531.217 434.567 531.449 434.67C531.829 434.76 532.129 434.899 532.109 434.999Z" fill="#263238"/>
<path d="M532.25 433.08C532.25 433.14 531.92 433.35 531.46 433.57C531.195 433.729 530.898 433.828 530.59 433.86C530.59 433.8 530.92 433.59 531.37 433.37C531.639 433.211 531.939 433.113 532.25 433.08Z" fill="#263238"/>
<path d="M532.048 431.9C532.048 431.9 531.758 432.3 531.238 432.59C530.944 432.79 530.594 432.895 530.238 432.89C530.525 432.698 530.83 432.534 531.148 432.4C531.638 432.13 531.998 431.85 532.048 431.9Z" fill="#263238"/>
<path d="M529.999 435.08C529.694 435.289 529.356 435.445 528.999 435.54C528.606 435.655 528.205 435.738 527.799 435.79C527.553 435.821 527.305 435.821 527.059 435.79C526.905 435.778 526.761 435.707 526.659 435.59C526.613 435.519 526.588 435.435 526.588 435.35C526.588 435.265 526.613 435.181 526.659 435.11C526.963 434.742 527.386 434.49 527.854 434.399C528.323 434.308 528.809 434.383 529.229 434.61C529.477 434.74 529.695 434.921 529.869 435.14C529.989 435.3 530.039 435.4 530.029 435.41C529.783 435.135 529.488 434.908 529.159 434.74C528.807 434.575 528.414 434.516 528.029 434.57C527.8 434.594 527.578 434.663 527.375 434.772C527.173 434.882 526.994 435.031 526.849 435.21C526.739 435.4 526.849 435.56 527.119 435.59C527.349 435.61 527.58 435.61 527.809 435.59C528.207 435.55 528.602 435.48 528.989 435.38C529.559 435.22 529.999 435.05 529.999 435.08Z" fill="#263238"/>
<path d="M529.719 435.249C529.496 435.091 529.339 434.856 529.279 434.589C529.191 434.308 529.17 434.01 529.219 433.719C529.236 433.527 529.302 433.343 529.411 433.184C529.519 433.024 529.667 432.895 529.839 432.809C530.089 432.729 530.669 433.239 530.709 433.429C530.749 433.619 530.419 433.519 530.399 433.679C530.367 433.963 530.299 434.242 530.199 434.509C530.126 434.766 529.988 435.001 529.799 435.189C529.799 435.189 529.919 434.919 530.059 434.469C530.131 434.204 530.181 433.933 530.209 433.659C530.209 433.379 530.209 432.949 529.889 433.019C529.569 433.089 529.479 433.479 529.409 433.759C529.348 434.019 529.348 434.289 529.409 434.549C529.492 434.791 529.595 435.025 529.719 435.249Z" fill="#263238"/>
<path d="M546.468 426.359C546.468 426.359 545.988 426.529 545.308 426.939C544.419 427.471 543.695 428.24 543.218 429.159C542.756 430.088 542.558 431.126 542.648 432.159C542.708 432.959 542.898 433.419 542.858 433.439C542.794 433.34 542.743 433.233 542.708 433.119C542.609 432.813 542.539 432.499 542.498 432.179C542.355 431.114 542.54 430.031 543.027 429.074C543.515 428.116 544.283 427.33 545.228 426.819C545.511 426.663 545.81 426.535 546.118 426.439C546.23 426.396 546.348 426.369 546.468 426.359Z" fill="#263238"/>
<path d="M540.179 432.899C538.769 433.88 537.194 434.598 535.529 435.019C535.529 434.959 536.579 434.559 537.859 434.019C539.139 433.479 540.149 432.849 540.179 432.899Z" fill="#263238"/>
<path d="M543.29 431.469C543.34 431.469 543.29 431.719 543.29 432.009C543.29 432.299 543.29 432.539 543.29 432.559C543.29 432.579 543.09 432.339 543.09 432.009C543.09 431.679 543.24 431.439 543.29 431.469Z" fill="#263238"/>
<path d="M543.799 429.47C543.849 429.47 543.799 429.7 543.739 429.94C543.679 430.18 543.529 430.36 543.479 430.34C543.429 430.32 543.479 430.11 543.539 429.87C543.599 429.63 543.739 429.45 543.799 429.47Z" fill="#263238"/>
<path d="M545.178 428.001C545.178 428.061 544.978 428.151 544.778 428.341C544.578 428.531 544.468 428.731 544.418 428.711C544.368 428.691 544.418 428.411 544.638 428.181C544.858 427.951 545.168 428.001 545.178 428.001Z" fill="#263238"/>
<path d="M546.229 427.18C546.229 427.18 546.229 427.34 546.109 427.45C545.989 427.56 545.879 427.62 545.839 427.58C545.799 427.54 545.839 427.42 545.959 427.31C546.079 427.2 546.189 427.14 546.229 427.18Z" fill="#263238"/>
<path d="M526.56 223.64L523.64 187.94L538.64 188.21C538.64 188.21 539.33 182.94 537.12 171.4C535.76 164.32 531.05 159.98 525.76 157.4V157.3L525.3 157.18C520.945 155.225 516.295 154.011 511.54 153.59L493.09 153.8C493.09 153.8 479 152 471.23 162.09C468.23 165.96 458.92 192.45 458.92 192.45L481.07 203.11L479 188.42C479 188.42 479.42 199.07 480.78 202.42C481.53 204.3 483.78 210.14 483.78 210.14L483.49 227.76L526.56 223.64Z" fill="#FF223F"/>
<path d="M516.388 182.759L513.648 194.419H539.478L537.778 174.859L516.388 182.759Z" fill="#FF223F"/>
<path d="M539.478 194.42C538.349 194.212 537.206 194.098 536.058 194.08C533.938 193.96 531.058 193.85 527.778 193.87C524.498 193.89 521.608 194.03 519.488 194.19C518.341 194.229 517.2 194.37 516.078 194.61C517.223 194.701 518.373 194.701 519.518 194.61C521.628 194.54 524.518 194.46 527.778 194.45C531.038 194.44 533.928 194.45 536.048 194.5C537.192 194.564 538.339 194.537 539.478 194.42Z" fill="#263238"/>
<path d="M515.268 174.77C515.145 175.765 515.118 176.769 515.188 177.77C515.188 179.6 515.268 182.12 515.378 184.91C515.488 187.7 515.618 190.23 515.738 192.05C515.743 193.058 515.85 194.063 516.058 195.05C516.181 194.054 516.208 193.05 516.138 192.05C516.138 190.22 516.058 187.69 515.948 184.9C515.838 182.11 515.708 179.59 515.588 177.76C515.584 176.755 515.477 175.753 515.268 174.77Z" fill="#263238"/>
<g opacity="0.3">
<path d="M491.77 184.869C491.77 184.869 497.51 227.439 513.65 226.309C513.65 226.309 520.92 226.229 523.25 221.399V219.499L491.77 184.869Z" fill="black"/>
</g>
<g opacity="0.3">
<path d="M515.27 177.279L512.18 198.149L514.18 201.809L517.48 194.649L516.08 194.609L515.27 177.279Z" fill="black"/>
</g>
<path d="M483.688 210.16C483.497 209.849 483.349 209.512 483.248 209.16C482.998 208.51 482.668 207.56 482.248 206.37C481.247 203.27 480.422 200.115 479.778 196.92C479.137 193.724 478.729 190.486 478.558 187.23C478.498 185.98 478.478 184.97 478.498 184.23C478.473 183.869 478.496 183.506 478.568 183.15C478.648 183.15 478.708 184.69 478.918 187.15C479.2 190.376 479.657 193.584 480.288 196.76C481.028 200.48 481.918 203.81 482.598 206.2C482.918 207.31 483.188 208.26 483.408 209.04C483.546 209.401 483.64 209.777 483.688 210.16Z" fill="#263238"/>
<path d="M490.208 222.389C490.068 222.389 489.668 221.519 489.318 220.389C489.017 219.697 488.884 218.943 488.928 218.189C489.37 218.801 489.673 219.5 489.818 220.239C490.105 220.919 490.239 221.653 490.208 222.389Z" fill="#263238"/>
<path d="M492.439 222.23C491.683 220.224 491.651 218.017 492.349 215.99C492.427 217.029 492.427 218.072 492.349 219.11C492.458 220.146 492.488 221.189 492.439 222.23Z" fill="#263238"/>
<path d="M481.519 203.6C481.449 203.72 476.299 201.28 470.009 198.14C463.719 195 458.669 192.34 458.729 192.21C458.789 192.08 463.949 194.53 470.239 197.67C476.529 200.81 481.579 203.47 481.519 203.6Z" fill="#263238"/>
<path d="M490.6 157.251C490.71 152.191 490.74 146.871 490.74 146.871C490.74 146.871 484.25 145.621 483.12 137.081C482.04 128.941 485.06 109.831 485.06 109.831C494.54 106.251 504.39 109.501 510.88 117.181L509.27 158.251C509.08 163.021 504.83 166.661 499.73 166.421C494.57 166.171 490.49 162.071 490.6 157.251Z" fill="#B78876"/>
<path d="M484.559 125.101C484.55 125.381 484.649 125.654 484.835 125.864C485.021 126.074 485.28 126.206 485.559 126.231C485.701 126.245 485.844 126.229 485.98 126.186C486.116 126.142 486.242 126.072 486.349 125.978C486.457 125.885 486.544 125.77 486.606 125.642C486.668 125.513 486.703 125.373 486.709 125.231C486.718 124.952 486.619 124.68 486.433 124.471C486.247 124.263 485.988 124.134 485.709 124.111C485.567 124.089 485.421 124.099 485.283 124.139C485.144 124.178 485.016 124.248 484.907 124.342C484.798 124.436 484.71 124.552 484.65 124.683C484.59 124.814 484.559 124.957 484.559 125.101Z" fill="#263238"/>
<path d="M484.159 123.67C484.289 123.81 485.159 123.22 486.309 123.26C487.459 123.3 488.309 123.9 488.449 123.76C488.589 123.62 488.389 123.44 488.019 123.15C487.518 122.787 486.917 122.588 486.299 122.58C485.69 122.557 485.09 122.732 484.589 123.08C484.219 123.35 484.089 123.6 484.159 123.67Z" fill="#263238"/>
<path d="M496.47 125.839C496.458 126.12 496.556 126.395 496.743 126.605C496.929 126.816 497.189 126.946 497.47 126.969C497.613 126.991 497.759 126.981 497.899 126.941C498.038 126.9 498.167 126.83 498.276 126.735C498.385 126.64 498.473 126.522 498.532 126.39C498.591 126.258 498.621 126.114 498.62 125.969C498.631 125.689 498.533 125.416 498.346 125.207C498.16 124.998 497.899 124.87 497.62 124.849C497.477 124.828 497.332 124.837 497.193 124.877C497.055 124.917 496.926 124.986 496.817 125.08C496.708 125.174 496.62 125.291 496.56 125.422C496.5 125.553 496.469 125.695 496.47 125.839Z" fill="#263238"/>
<path d="M496.389 124.41C496.519 124.56 497.389 123.97 498.539 124C499.689 124.03 500.539 124.64 500.689 124.5C500.839 124.36 500.619 124.18 500.249 123.9C499.756 123.527 499.157 123.324 498.539 123.32C497.927 123.301 497.326 123.476 496.819 123.82C496.459 124.09 496.329 124.34 496.389 124.41Z" fill="#263238"/>
<path d="M491.909 133C491.295 132.789 490.657 132.658 490.009 132.61C489.709 132.61 489.429 132.5 489.389 132.3C489.365 131.988 489.442 131.676 489.609 131.41L490.549 129.16C491.424 127.248 492.143 125.268 492.699 123.24C491.675 125.078 490.799 126.994 490.079 128.97C489.769 129.76 489.459 130.52 489.169 131.24C488.975 131.597 488.912 132.011 488.989 132.41C489.029 132.519 489.092 132.617 489.176 132.696C489.259 132.776 489.359 132.836 489.469 132.87C489.635 132.918 489.807 132.945 489.979 132.95C490.618 133.049 491.266 133.065 491.909 133Z" fill="#263238"/>
<path d="M490.738 146.869C494.739 147.029 498.706 146.077 502.198 144.119C502.198 144.119 499.288 149.889 490.798 148.879L490.738 146.869Z" fill="#A36957"/>
<path d="M500.149 121C499.909 121.37 499.009 121.21 498.009 121C497.009 120.79 496.129 120.62 496.009 120.19C495.889 119.76 496.939 119.19 498.279 119.46C499.619 119.73 500.389 120.68 500.149 121Z" fill="#263238"/>
<path d="M488.479 119.299C488.389 119.729 487.429 119.889 486.329 119.939C485.229 119.989 484.259 119.939 484.129 119.499C483.999 119.059 484.929 118.439 486.259 118.379C487.589 118.319 488.569 118.889 488.479 119.299Z" fill="#263238"/>
<path d="M491.928 135.81C491.802 135.78 491.669 135.794 491.552 135.848C491.434 135.902 491.338 135.995 491.278 136.11C491.221 136.212 491.192 136.327 491.193 136.444C491.195 136.561 491.226 136.675 491.286 136.776C491.345 136.877 491.429 136.96 491.53 137.018C491.632 137.076 491.747 137.107 491.863 137.107C491.98 137.107 492.095 137.076 492.196 137.018C492.298 136.96 492.382 136.877 492.441 136.776C492.5 136.675 492.532 136.561 492.533 136.444C492.535 136.327 492.505 136.212 492.448 136.11C492.377 135.976 492.261 135.87 492.121 135.81C491.981 135.75 491.825 135.74 491.678 135.78" fill="#A36957"/>
<path d="M492.199 135.93C492.199 135.88 492.009 135.59 491.499 135.7C491.347 135.74 491.207 135.819 491.095 135.93C490.983 136.041 490.902 136.179 490.859 136.33C490.806 136.522 490.81 136.725 490.873 136.914C490.935 137.103 491.052 137.269 491.209 137.39C491.376 137.504 491.573 137.565 491.774 137.565C491.976 137.565 492.173 137.504 492.339 137.39C492.472 137.301 492.577 137.175 492.641 137.028C492.704 136.881 492.725 136.719 492.699 136.56C492.599 136.03 492.209 135.95 492.189 136.02C492.169 136.09 492.329 136.27 492.299 136.58C492.293 136.657 492.267 136.731 492.225 136.795C492.184 136.86 492.127 136.913 492.059 136.95C491.982 136.995 491.894 137.019 491.804 137.019C491.715 137.019 491.627 136.995 491.549 136.95C491.48 136.891 491.426 136.815 491.395 136.729C491.363 136.643 491.355 136.551 491.369 136.46C491.381 136.381 491.411 136.306 491.458 136.242C491.506 136.178 491.568 136.126 491.639 136.09C491.919 135.92 492.169 136 492.199 135.93Z" fill="#263238"/>
<path d="M507 127.211C506 129.551 503.52 131.361 503.86 133.891C504.08 135.521 505.13 137.041 504.93 138.681C504.67 140.681 502.54 142.161 502.23 144.211C501.86 146.721 504.31 148.671 505.28 151.011C506.71 154.431 504.89 158.271 504.84 162.011C504.898 164.85 505.985 167.572 507.897 169.672C509.809 171.772 512.418 173.107 515.24 173.431C517.52 173.621 520.09 172.931 521.24 170.971C522.24 169.351 522.02 167.291 522.6 165.501C523.48 162.821 526.03 160.861 526.6 158.101C527.6 153.101 521.5 148.901 521.9 143.781C522.07 141.591 523.42 139.691 523.99 137.571C524.352 136.178 524.38 134.718 524.071 133.312C523.762 131.906 523.124 130.593 522.21 129.481C520.7 127.691 518.52 126.481 517.21 124.561C515.76 122.351 515.71 119.561 515.21 116.951C514.538 113.778 513.073 110.828 510.952 108.375C508.831 105.923 506.122 104.048 503.08 102.926C500.037 101.805 496.76 101.473 493.555 101.961C490.349 102.45 487.32 103.743 484.75 105.721C484.75 105.721 483.3 112.311 490.07 113.421C496.84 114.531 499.97 113.251 500.73 115.961C500.55 117.077 500.638 118.22 500.986 119.296C501.334 120.372 501.931 121.35 502.73 122.151C505.49 125.131 508.12 124.491 507 127.211Z" fill="#263238"/>
<path d="M517.749 172.921C517.541 172.928 517.332 172.908 517.129 172.861C516.543 172.757 515.967 172.599 515.409 172.391C513.344 171.599 511.533 170.261 510.169 168.521C509.213 167.319 508.462 165.968 507.949 164.521C507.365 162.873 507.057 161.139 507.039 159.391C507.018 157.463 507.261 155.542 507.759 153.681C508.032 152.697 508.366 151.732 508.759 150.791C509.172 149.853 509.536 148.896 509.849 147.921C510.124 146.96 510.124 145.941 509.849 144.981C509.556 144.035 509.178 143.118 508.719 142.241C508.256 141.371 507.864 140.464 507.549 139.531C507.241 138.606 507.169 137.62 507.339 136.661C507.739 134.781 508.879 133.381 509.559 131.951C510.207 130.627 510.516 129.163 510.459 127.691C510.368 125.536 509.586 123.467 508.229 121.791C507.703 121.203 507.139 120.652 506.539 120.141C507.24 120.535 507.867 121.049 508.389 121.661C509.846 123.335 510.704 125.445 510.829 127.661C510.912 129.197 510.609 130.73 509.949 132.121C509.259 133.601 508.149 135.011 507.809 136.731C507.469 138.451 508.279 140.261 509.169 142.001C509.654 142.903 510.05 143.851 510.349 144.831C510.644 145.877 510.644 146.984 510.349 148.031C510.016 149.039 509.633 150.031 509.199 151.001C508.806 151.922 508.472 152.867 508.199 153.831C507.703 155.645 507.457 157.519 507.469 159.401C507.438 162.605 508.472 165.728 510.409 168.281C511.704 170 513.429 171.348 515.409 172.191C516.899 172.771 517.759 172.861 517.749 172.921Z" fill="#455A64"/>
<path d="M516.75 122.46C516.262 122.586 515.763 122.66 515.26 122.68C513.888 122.827 512.502 122.79 511.14 122.57C510.107 122.417 509.115 122.06 508.222 121.519C507.329 120.978 506.553 120.264 505.94 119.42C505.368 118.352 504.912 117.225 504.58 116.06C504.153 114.896 503.351 113.907 502.3 113.25C500.11 111.86 497.54 111.69 495.3 111.42C493.234 111.317 491.227 110.691 489.47 109.6C488.292 108.82 487.442 107.635 487.08 106.27C486.992 105.9 486.969 105.518 487.01 105.14C487.01 104.88 487.07 104.75 487.09 104.75C487.101 105.245 487.165 105.738 487.28 106.22C487.694 107.496 488.543 108.587 489.68 109.3C491.405 110.307 493.353 110.87 495.35 110.94C497.59 111.2 500.25 111.33 502.59 112.81C503.735 113.529 504.607 114.609 505.07 115.88C505.383 117.016 505.815 118.115 506.36 119.16C507.524 120.758 509.269 121.835 511.22 122.16C512.538 122.405 513.88 122.496 515.22 122.43C515.73 122.401 516.241 122.411 516.75 122.46Z" fill="#455A64"/>
<path d="M514.269 114.32C513.892 114.446 513.496 114.503 513.099 114.49C511.235 114.502 509.44 113.784 508.099 112.49C507.487 111.876 506.966 111.179 506.549 110.42C505.649 108.9 504.779 107.03 502.909 106.25C501.108 105.645 499.188 105.477 497.309 105.76C495.724 105.983 494.115 105.983 492.529 105.76C491.426 105.607 490.387 105.15 489.529 104.44C489.308 104.246 489.112 104.024 488.949 103.78C488.829 103.606 488.779 103.516 488.799 103.51C488.799 103.51 489.079 103.83 489.659 104.28C490.514 104.888 491.508 105.273 492.549 105.4C494.106 105.575 495.679 105.548 497.229 105.32C499.191 104.999 501.201 105.171 503.079 105.82C504.045 106.254 504.872 106.946 505.469 107.82C505.996 108.599 506.48 109.407 506.919 110.24C507.314 110.967 507.801 111.639 508.369 112.24C508.871 112.748 509.448 113.176 510.079 113.51C511.009 113.995 512.032 114.278 513.079 114.34C513.849 114.33 514.259 114.27 514.269 114.32Z" fill="#455A64"/>
<path d="M520.73 170.761C520.68 170.761 521 170.101 521.37 168.861C521.871 167.12 522.094 165.311 522.03 163.501C521.957 160.821 521.226 158.201 519.9 155.871C519.17 154.561 518.06 153.391 517.15 151.951C516.669 151.217 516.329 150.4 516.15 149.541C515.992 148.637 516.068 147.708 516.37 146.841C516.93 145.111 517.93 143.661 518.15 142.071C518.37 140.481 517.61 139.071 516.85 137.741C516.458 137.094 516.101 136.426 515.78 135.741C515.487 135.076 515.295 134.372 515.21 133.651C515.116 132.38 515.156 131.103 515.33 129.841C515.65 128.057 515.484 126.219 514.85 124.521C514.567 123.926 514.165 123.395 513.67 122.961C513.67 122.961 513.72 122.961 513.79 123.021C513.908 123.08 514.016 123.157 514.11 123.251C514.501 123.577 514.818 123.982 515.04 124.441C515.763 126.154 515.989 128.036 515.69 129.871C515.552 131.11 515.535 132.359 515.64 133.601C515.887 134.998 516.44 136.323 517.26 137.481C517.687 138.157 518.051 138.87 518.35 139.611C518.665 140.411 518.768 141.279 518.65 142.131C518.41 143.881 517.38 145.361 516.86 146.991C516.587 147.777 516.515 148.62 516.65 149.441C516.824 150.235 517.143 150.991 517.59 151.671C518.44 153.061 519.59 154.251 520.32 155.621C521.66 158.029 522.375 160.735 522.4 163.491C522.432 165.336 522.147 167.172 521.56 168.921C521.4 169.394 521.206 169.855 520.98 170.301C520.919 170.465 520.835 170.62 520.73 170.761Z" fill="#455A64"/>
<path d="M480 357.09C480 357.09 473.26 293.25 472.87 269.66C472.48 246.07 483.479 222.79 483.479 222.79L526.56 221C526.56 221 535.079 244.93 535.229 255C535.529 274.54 530.039 293.83 530.669 309.33L532.109 357.13" fill="#263238"/>
<path d="M533.56 278.6C533.335 278.795 533.098 278.975 532.85 279.14L532.46 279.41L532.04 279.82C531.67 280.14 531.334 280.499 531.04 280.89C529.65 282.59 528.64 285.64 527.67 289.43C527.174 291.532 526.443 293.571 525.49 295.51C525.2 296.04 524.866 296.546 524.49 297.02C524.31 297.26 524.14 297.52 523.93 297.75L523.27 298.41C522.324 299.293 521.227 299.998 520.03 300.49C517.62 301.55 514.89 302.05 512.41 303.3C509.869 304.667 507.906 306.903 506.88 309.6C505.66 312.31 504.88 315.15 503.88 317.81C502.88 320.47 501.53 323.01 499.38 324.63C497.324 326.058 494.883 326.829 492.38 326.84C490.06 326.98 487.91 326.91 485.98 327.2C484.243 327.38 482.582 328.007 481.16 329.02C480.121 329.832 479.342 330.93 478.92 332.18C478.652 332.968 478.593 333.812 478.75 334.63C478.87 335.19 479.02 335.46 478.99 335.47C478.829 335.219 478.714 334.941 478.65 334.65C478.439 333.815 478.467 332.939 478.73 332.12C479.127 330.808 479.912 329.648 480.98 328.79C482.439 327.689 484.165 326.999 485.98 326.79C487.98 326.47 490.11 326.51 492.4 326.36C494.83 326.344 497.197 325.59 499.19 324.2C501.211 322.434 502.703 320.142 503.5 317.58C504.5 314.95 505.23 312.1 506.5 309.34C507.576 306.532 509.628 304.207 512.28 302.79C514.86 301.51 517.59 301.02 519.94 300C521.09 299.523 522.147 298.846 523.06 298L523.69 297.37C523.89 297.15 524.06 296.9 524.24 296.67C524.593 296.215 524.904 295.73 525.17 295.22C526.128 293.308 526.869 291.296 527.38 289.22C528.38 285.44 529.47 282.35 530.94 280.64C531.233 280.25 531.568 279.894 531.94 279.58C532.1 279.44 532.24 279.3 532.38 279.19L532.79 278.93C533.04 278.804 533.297 278.694 533.56 278.6Z" fill="#FAFAFA"/>
<path d="M533.819 249.061C533.865 249.341 533.885 249.626 533.879 249.911C533.876 250.736 533.775 251.559 533.579 252.361C532.718 255.286 531.026 257.898 528.709 259.881C527.18 261.287 525.504 262.524 523.709 263.571C521.779 264.711 519.649 265.801 517.459 267.041C515.159 268.274 513.017 269.782 511.079 271.531C509.092 273.502 507.455 275.799 506.239 278.321C505.013 280.877 503.613 283.346 502.049 285.711C501.254 286.813 500.335 287.819 499.309 288.711C498.298 289.571 497.186 290.306 495.999 290.901C493.851 291.956 491.612 292.816 489.309 293.471C487.169 294.131 485.169 294.721 483.429 295.471C481.85 296.099 480.347 296.904 478.949 297.871C477.898 298.6 476.952 299.472 476.139 300.461C475.459 301.318 474.891 302.259 474.449 303.261C474.52 302.983 474.614 302.713 474.729 302.451C475.057 301.695 475.477 300.983 475.979 300.331C476.777 299.3 477.72 298.39 478.779 297.631C480.183 296.63 481.696 295.791 483.289 295.131C485.216 294.346 487.182 293.661 489.179 293.081C491.449 292.411 493.657 291.548 495.779 290.501C496.905 289.913 497.961 289.202 498.929 288.381C499.916 287.502 500.801 286.516 501.569 285.441C503.112 283.087 504.498 280.635 505.719 278.101C506.974 275.523 508.665 273.181 510.719 271.181C512.691 269.405 514.874 267.881 517.219 266.641C519.419 265.411 521.549 264.341 523.479 263.211C525.269 262.199 526.945 260.998 528.479 259.631C530.777 257.708 532.483 255.173 533.399 252.321C533.656 251.252 533.797 250.159 533.819 249.061Z" fill="#FAFAFA"/>
<path d="M473.089 273.001C473.049 272.939 473.019 272.872 472.999 272.801C472.924 272.608 472.86 272.411 472.809 272.211C472.637 271.415 472.671 270.589 472.909 269.811C473.469 267.811 475.679 265.241 479.239 263.971C481.019 263.361 483.029 262.971 485.129 262.451C486.872 262.162 488.522 261.46 489.94 260.404C491.357 259.348 492.502 257.969 493.279 256.381C493.847 255.215 494.345 254.016 494.769 252.791C495.55 250.129 496.613 247.558 497.939 245.121C499.458 242.725 501.763 240.933 504.459 240.051C506.911 239.255 509.413 238.62 511.949 238.151C514.211 237.716 516.402 236.969 518.459 235.931C520.2 234.936 521.702 233.57 522.859 231.931C524.566 229.564 525.54 226.747 525.659 223.831C525.663 222.761 525.593 221.691 525.449 220.631C525.751 221.67 525.889 222.749 525.859 223.831C525.82 226.81 524.878 229.708 523.159 232.141C521.988 233.834 520.454 235.245 518.669 236.271C516.585 237.348 514.36 238.126 512.059 238.581C509.547 239.058 507.068 239.696 504.639 240.491C502.05 241.339 499.837 243.06 498.379 245.361C497.074 247.765 496.025 250.299 495.249 252.921C494.816 254.169 494.305 255.388 493.719 256.571C493.126 257.707 492.372 258.752 491.479 259.671C489.722 261.272 487.561 262.362 485.229 262.821C483.109 263.361 481.109 263.701 479.359 264.281C475.889 265.461 473.689 267.891 473.099 269.831C472.856 270.579 472.791 271.373 472.909 272.151C472.993 272.428 473.053 272.713 473.089 273.001Z" fill="#FAFAFA"/>
<path d="M530.12 327C530.16 327.208 530.184 327.418 530.19 327.63C530.209 328.236 530.145 328.841 530 329.43C529.371 331.598 528.042 333.497 526.22 334.83C525.003 335.799 523.657 336.594 522.22 337.19C520.69 337.84 519 338.36 517.22 338.91C515.372 339.45 513.564 340.118 511.81 340.91C509.987 341.781 508.353 343 507 344.5C505.54 346.02 504.28 347.69 502.88 349.17C501.541 350.604 499.985 351.818 498.27 352.77C495.351 354.363 492.085 355.214 488.76 355.25C486.533 355.274 484.319 354.905 482.22 354.16C481.65 353.964 481.095 353.726 480.56 353.45C480.365 353.369 480.18 353.265 480.01 353.14C480.211 353.195 480.408 353.266 480.6 353.35C481.149 353.585 481.71 353.792 482.28 353.97C484.375 354.627 486.564 354.934 488.76 354.88C492.012 354.796 495.195 353.928 498.04 352.35C499.701 351.409 501.209 350.218 502.51 348.82C503.88 347.36 505.13 345.7 506.62 344.14C508.053 342.584 509.779 341.327 511.7 340.44C513.48 339.645 515.315 338.977 517.19 338.44C518.95 337.9 520.63 337.44 522.19 336.78C523.585 336.209 524.897 335.452 526.09 334.53C527.882 333.264 529.218 331.455 529.9 329.37C530.047 328.589 530.121 327.795 530.12 327Z" fill="#FAFAFA"/>
<path d="M525.208 194.459L516.868 194.659C516.547 196.341 515.909 197.946 514.988 199.389C507.988 187.289 502.618 171.089 501.278 164.579C501.478 163.929 501.708 163.209 501.998 162.409C502.206 161.194 502.169 159.95 501.888 158.749C501.648 157.299 501.248 155.349 501.128 154.449C500.758 151.689 500.308 151.259 499.348 151.569C498.048 151.999 499.888 159.299 498.818 159.459C498.238 159.539 497.538 157.039 497.338 154.989C497.138 152.939 496.198 146.619 495.528 146.199C494.528 145.579 493.658 146.559 493.918 148.599C494.178 150.639 494.488 156.839 493.408 156.929C492.328 157.019 491.408 146.539 491.408 146.539C491.408 146.539 491.578 144.259 490.318 144.309C488.058 144.409 489.828 155.449 490.018 156.499C490.158 157.219 489.018 157.359 488.878 156.569C488.738 155.779 488.218 146.099 485.878 146.179C484.098 146.179 487.248 155.269 486.248 157.369C485.248 159.469 484.568 150.249 482.878 150.369C482.248 150.419 481.778 150.539 482.938 155.749C484.049 159.889 485.385 163.965 486.938 167.959C489.618 182.409 501.378 228.639 519.808 220.179C530.128 215.439 534.308 194.459 534.308 194.459H525.208Z" fill="#B78876"/>
<path d="M489.66 157.201C489.739 157.221 489.821 157.221 489.9 157.201C490.021 157.164 490.124 157.085 490.192 156.979C490.26 156.873 490.287 156.746 490.27 156.621C490.27 156.001 490.15 155.101 490.01 153.931C489.776 152.521 489.622 151.098 489.55 149.671C489.55 148.831 489.55 147.931 489.6 146.981C489.615 146.498 489.665 146.017 489.75 145.541C489.83 145.091 490.13 144.541 490.48 144.631H490.54C490.89 144.631 491.17 144.891 491.28 145.311C491.404 145.746 491.451 146.199 491.42 146.651C491.626 149.451 491.983 152.239 492.49 155.001C492.57 155.371 492.65 155.751 492.77 156.131C492.823 156.325 492.89 156.516 492.97 156.701C493.021 156.804 493.078 156.904 493.14 157.001C493.185 157.074 493.246 157.136 493.319 157.181C493.392 157.226 493.475 157.253 493.56 157.261C493.706 157.245 493.843 157.186 493.955 157.092C494.068 156.997 494.149 156.872 494.19 156.731C494.276 156.535 494.34 156.331 494.38 156.121C494.458 155.718 494.511 155.31 494.54 154.901C494.631 153.235 494.608 151.564 494.47 149.901C494.343 149.071 494.31 148.229 494.37 147.391C494.406 147.029 494.582 146.695 494.86 146.461C494.924 146.423 494.995 146.399 495.07 146.39C495.144 146.381 495.219 146.388 495.29 146.411C495.375 146.431 495.456 146.465 495.53 146.511C495.581 146.549 495.619 146.601 495.64 146.661C495.955 147.472 496.186 148.313 496.33 149.171C496.51 150.051 496.66 150.961 496.8 151.871C496.94 152.781 497.07 153.701 497.18 154.631C497.266 155.591 497.419 156.543 497.64 157.481C497.758 157.96 497.908 158.432 498.09 158.891C498.192 159.148 498.334 159.388 498.51 159.601C498.577 159.69 498.669 159.757 498.773 159.796C498.878 159.835 498.991 159.844 499.1 159.821C499.201 159.787 499.292 159.728 499.364 159.65C499.436 159.571 499.486 159.475 499.51 159.371C499.628 158.86 499.665 158.333 499.62 157.811C499.62 157.311 499.56 156.811 499.51 156.331C499.44 155.491 499.36 154.661 499.33 153.841C499.305 153.438 499.305 153.034 499.33 152.631C499.35 152.453 499.393 152.278 499.46 152.111C499.481 152.056 499.511 152.005 499.55 151.961H499.68C500.34 151.691 500.56 152.611 500.74 153.351C500.92 154.091 500.99 154.931 501.15 155.721C501.41 157.291 501.75 158.861 501.92 160.361C502.036 161.079 502.008 161.813 501.84 162.521C501.6 163.241 501.36 163.951 501.13 164.661V164.731V164.791C502.301 169.704 503.794 174.534 505.6 179.251C507.18 183.521 508.77 187.251 510.16 190.251C511.55 193.251 512.81 195.601 513.67 197.181L514.67 198.971C514.778 199.184 514.909 199.385 515.06 199.571C514.976 199.349 514.872 199.135 514.75 198.931L513.75 197.101C512.93 195.491 511.75 193.101 510.39 190.101C509.03 187.101 507.49 183.371 505.95 179.101C504.188 174.391 502.725 169.575 501.57 164.681V164.821C501.8 164.121 502.03 163.411 502.27 162.701C502.478 161.922 502.519 161.107 502.39 160.311C502.21 158.741 501.88 157.221 501.62 155.641C501.47 154.861 501.37 154.061 501.21 153.241C501.2 152.82 501.129 152.402 501 152.001C500.886 151.757 500.692 151.559 500.45 151.441C500.193 151.357 499.917 151.357 499.66 151.441H499.5C499.415 151.468 499.337 151.512 499.27 151.571C499.159 151.665 499.073 151.785 499.02 151.921C498.928 152.137 498.871 152.367 498.85 152.601C498.82 153.034 498.82 153.468 498.85 153.901C498.85 154.741 498.97 155.581 499.04 156.421C499.04 156.911 499.12 157.421 499.14 157.871C499.18 158.322 499.156 158.776 499.07 159.221C499.07 159.321 498.99 159.301 499.07 159.351L499.01 159.291C498.883 159.127 498.781 158.945 498.71 158.751C498.535 158.318 498.392 157.874 498.28 157.421C498.06 156.51 497.91 155.584 497.83 154.651C497.723 153.711 497.593 152.781 497.44 151.861C497.3 150.941 497.14 150.041 496.96 149.141C496.809 148.225 496.554 147.329 496.2 146.471C496.131 146.328 496.024 146.206 495.89 146.121C495.773 146.053 495.649 146 495.52 145.961C495.377 145.923 495.229 145.915 495.083 145.935C494.937 145.956 494.797 146.005 494.67 146.081C494.464 146.235 494.292 146.43 494.164 146.654C494.037 146.877 493.957 147.125 493.93 147.381C493.865 147.835 493.865 148.297 493.93 148.751C493.93 149.181 494.03 149.601 494.06 150.021C494.199 151.657 494.229 153.301 494.15 154.941C494.127 155.331 494.076 155.718 494 156.101C493.971 156.28 493.921 156.454 493.85 156.621C493.824 156.687 493.787 156.748 493.74 156.801C493.74 156.891 493.67 156.801 493.68 156.921C493.68 156.821 493.68 156.921 493.68 156.791C493.636 156.723 493.596 156.653 493.56 156.581C493.49 156.421 493.43 156.241 493.37 156.071C493.26 155.711 493.18 155.341 493.1 154.981C492.578 152.243 492.201 149.479 491.97 146.701C492 146.198 491.942 145.694 491.8 145.211C491.734 144.959 491.599 144.73 491.41 144.551C491.312 144.456 491.196 144.383 491.069 144.335C490.942 144.286 490.806 144.265 490.67 144.271H490.73C490.561 144.246 490.388 144.272 490.233 144.345C490.078 144.418 489.949 144.535 489.86 144.681C489.711 144.919 489.609 145.184 489.56 145.461C489.476 145.957 489.429 146.458 489.42 146.961C489.42 147.961 489.42 148.831 489.42 149.681C489.515 151.118 489.698 152.547 489.97 153.961C490.14 155.121 490.27 156.021 490.33 156.631C490.349 156.738 490.331 156.848 490.278 156.943C490.225 157.037 490.141 157.111 490.04 157.151C489.74 157.181 489.65 157.191 489.66 157.201Z" fill="#A36957"/>
<path d="M424.529 208.229C422.578 208.188 420.629 208.413 418.739 208.899C413.569 210.259 404.659 215.659 404.289 222.329H410.769C410.769 222.329 407.139 230.049 408.199 229.329C410.969 227.469 416.469 221.879 416.469 221.879L424.529 208.229Z" fill="#B78876"/>
<path d="M512.859 92C512.709 92 512.129 86.66 511.549 80C510.969 73.34 510.609 68 510.749 68C510.889 68 511.479 73.34 512.059 80C512.639 86.66 512.999 92 512.859 92Z" fill="#263238"/>
<path d="M541.269 68.4109C541.379 68.4909 537.009 74.8409 531.499 82.5909C525.989 90.3409 521.419 96.5909 521.299 96.4709C521.179 96.3509 525.559 90.0409 531.069 82.2909C536.579 74.5409 541.149 68.3309 541.269 68.4109Z" fill="#263238"/>
<path d="M553.068 97.1896C553.068 97.3296 547.988 98.4996 541.668 99.7996C535.348 101.1 530.188 102.04 530.158 101.9C530.128 101.76 535.228 100.59 541.558 99.2896C547.888 97.9896 552.998 97.0496 553.068 97.1896Z" fill="#263238"/>
<path d="M213 234.539L177.6 416.339L173 440.139L409 438.999C419.6 438.949 429 429.539 432.39 415.559L474.25 243.929C476.84 233.319 471.16 222.279 463.12 222.289L224.2 222.539C219 222.529 214.34 227.449 213 234.539Z" fill="#FF223F"/>
<g opacity="0.5">
<path d="M213 234.539L177.6 416.339L173 440.139L409 438.999C419.6 438.949 429 429.539 432.39 415.559L474.25 243.929C476.84 233.319 471.16 222.279 463.12 222.289L224.2 222.539C219 222.529 214.34 227.449 213 234.539Z" fill="black"/>
</g>
<path d="M386.391 403.999L361.391 202.589C360.391 194.339 353.801 188.179 346.031 188.209L291.231 188.379C289.194 188.402 287.184 188.839 285.322 189.665C283.46 190.49 281.786 191.686 280.401 193.179L254.401 220.849L102.001 221.669C92.6909 221.719 85.5309 230.539 86.7609 240.439L109.971 426.589C110.971 434.829 117.561 440.979 125.311 440.969L390.961 440.439C420.541 441.049 423.371 432.319 423.371 432.319C389.411 439.829 386.391 404.049 386.391 403.999Z" fill="#FF223F"/>
<g opacity="0.5">
<path d="M271.841 363.721L262.881 373.341L193.881 311.261L202.841 301.641L271.841 363.721Z" fill="white"/>
<path d="M259.131 299.51L269.031 308.42L206.601 375.47L196.691 366.56L259.131 299.51Z" fill="white"/>
</g>
<path d="M424.321 103.781C423.997 103.645 423.719 103.419 423.519 103.13C423.319 102.841 423.205 102.502 423.191 102.151L422.791 92.8709C422.777 92.5826 422.83 92.2949 422.946 92.0307C423.063 91.7664 423.239 91.5329 423.461 91.3485C423.683 91.1642 423.945 91.0341 424.226 90.9686C424.507 90.903 424.8 90.9038 425.081 90.9709C425.855 91.138 426.655 91.1452 427.433 90.9922C428.21 90.8391 428.948 90.5291 429.601 90.0809C430.202 89.7002 430.719 89.2004 431.12 88.6122C431.521 88.024 431.797 87.3599 431.931 86.6609C432.021 85.9532 431.969 85.2344 431.777 84.5473C431.584 83.8602 431.256 83.2187 430.811 82.6609C430.342 82.0262 429.753 81.4902 429.077 81.0835C428.401 80.6769 427.651 80.4075 426.871 80.2909C425.297 80.2034 423.74 80.6495 422.452 81.5569C421.163 82.4643 420.219 83.7799 419.771 85.2909C419.621 85.7487 419.301 86.1313 418.877 86.3589C418.452 86.5865 417.957 86.6415 417.493 86.5127C417.029 86.3838 416.632 86.0808 416.386 85.667C416.14 85.2531 416.063 84.7602 416.171 84.2909C416.851 81.9143 418.329 79.8445 420.356 78.4295C422.383 77.0144 424.835 76.3404 427.301 76.5209C428.584 76.6919 429.82 77.119 430.935 77.777C432.05 78.4349 433.021 79.3102 433.791 80.3509C434.54 81.3154 435.088 82.4204 435.402 83.6005C435.716 84.7805 435.791 86.0116 435.621 87.2209C435.394 88.4285 434.921 89.5767 434.233 90.5948C433.545 91.613 432.656 92.4795 431.621 93.1409C430.12 94.151 428.368 94.7224 426.561 94.7909L426.871 101.951C426.882 102.265 426.814 102.578 426.673 102.859C426.532 103.141 426.322 103.382 426.063 103.56C425.803 103.739 425.503 103.849 425.19 103.88C424.877 103.912 424.561 103.864 424.271 103.741L424.321 103.781Z" fill="#FF223F"/>
<path d="M427.06 107.58C427.081 107.882 427.012 108.184 426.862 108.447C426.712 108.709 426.487 108.922 426.216 109.057C425.945 109.192 425.64 109.243 425.34 109.205C425.039 109.166 424.757 109.039 424.529 108.841C424.301 108.642 424.137 108.38 424.057 108.087C423.978 107.795 423.987 107.486 424.084 107.199C424.18 106.912 424.36 106.66 424.599 106.476C424.839 106.291 425.128 106.181 425.43 106.16C425.631 106.146 425.832 106.17 426.023 106.234C426.214 106.297 426.39 106.398 426.542 106.53C426.693 106.662 426.817 106.823 426.906 107.003C426.995 107.184 427.048 107.38 427.06 107.58Z" fill="#FF223F"/>
<path d="M392.191 90.6905C392.234 90.4926 392.264 90.2922 392.281 90.0905C392.281 89.6505 392.391 89.0905 392.471 88.3005C392.569 87.3305 392.733 86.3683 392.961 85.4205C393.091 84.8605 393.161 84.2405 393.361 83.6105C393.561 82.9805 393.761 82.3005 393.981 81.6105C395.139 78.1917 396.826 74.9759 398.981 72.0805C401.805 68.3311 405.386 65.2171 409.491 62.9405C411.827 61.6231 414.316 60.5955 416.901 59.8805C419.691 59.1409 422.564 58.7645 425.451 58.7605C426.971 58.736 428.491 58.8162 430.001 59.0005C430.771 59.0805 431.531 59.2805 432.301 59.4105C433.079 59.5438 433.848 59.7309 434.601 59.9705C437.753 60.8513 440.751 62.2104 443.491 64.0005C449.583 67.9517 454.223 73.7786 456.711 80.6005C458.05 84.2547 458.728 88.1185 458.711 92.0105C458.752 96.0199 458.043 100.002 456.621 103.75L456.171 104.89L456.111 105.04L456.171 105.19C458.681 110.96 461.171 116.63 463.521 122.12L463.941 121.64L448.941 115.89L448.761 115.82L448.611 115.96C444.643 119.805 439.785 122.609 434.471 124.12C429.93 125.371 425.176 125.643 420.521 124.921C415.867 124.199 411.419 122.498 407.471 119.93C404.237 117.81 401.386 115.155 399.041 112.08C395.642 107.592 393.439 102.314 392.641 96.7405C392.521 95.7405 392.421 94.9005 392.331 94.1405C392.241 93.3805 392.331 92.7605 392.281 92.2305C392.231 91.7005 392.281 91.3505 392.281 91.0605C392.331 91.0529 392.376 91.0268 392.407 90.9873C392.439 90.9478 392.454 90.898 392.45 90.8477C392.446 90.7974 392.424 90.7504 392.387 90.7161C392.35 90.6818 392.301 90.6627 392.251 90.6627C392.2 90.6627 392.152 90.6818 392.115 90.7161C392.078 90.7504 392.055 90.7974 392.051 90.8477C392.048 90.898 392.063 90.9478 392.094 90.9873C392.126 91.0268 392.171 91.0529 392.221 91.0605C392.221 91.3505 392.221 91.7405 392.221 92.2305C392.221 92.7205 392.221 93.4005 392.221 94.1605C392.221 94.9205 392.391 95.7905 392.491 96.7805C392.82 99.1857 393.393 101.551 394.201 103.84C395.345 106.864 396.886 109.722 398.781 112.34C401.136 115.47 404.007 118.175 407.271 120.34C411.268 122.972 415.779 124.724 420.505 125.479C425.23 126.234 430.063 125.975 434.681 124.72C440.059 123.193 444.978 120.363 449.001 116.48L448.671 116.55L463.671 122.33L464.421 122.62L464.091 121.85C461.711 116.36 459.251 110.7 456.751 104.92V105.21L457.211 104.04C458.67 100.21 459.396 96.1392 459.351 92.0405C459.382 88.0658 458.705 84.1174 457.351 80.3805C454.81 73.4226 450.066 67.485 443.841 63.4705C441.032 61.6387 437.955 60.2554 434.721 59.3705C433.956 59.1283 433.174 58.9444 432.381 58.8205C431.601 58.6805 430.831 58.4805 430.051 58.4105C428.522 58.2206 426.982 58.1338 425.441 58.1505C422.508 58.1629 419.59 58.5596 416.761 59.3305C414.141 60.0743 411.62 61.1285 409.251 62.4705C405.105 64.803 401.502 67.9901 398.681 71.8205C396.532 74.7639 394.868 78.0317 393.751 81.5005C393.541 82.2205 393.341 82.9105 393.161 83.5005C393.002 84.1033 392.875 84.7142 392.781 85.3305C392.566 86.2849 392.426 87.2544 392.361 88.2305C392.301 89.0005 392.261 89.5905 392.231 90.0305C392.189 90.2478 392.175 90.4697 392.191 90.6905Z" fill="#263238"/>
</svg>
