<svg width="500" height="381" viewBox="0 0 500 381" fill="none" xmlns="http://www.w3.org/2000/svg">
<g filter="url(#filter0_d_1947_9450)">
<path d="M500 327.4H0V327.65H500V327.4Z" fill="#EBEBEB"/>
<path d="M152.5 333.439H142.02V333.689H152.5V333.439Z" fill="#EBEBEB"/>
<path d="M466.18 340H448.33V340.25H466.18V340Z" fill="#EBEBEB"/>
<path d="M381.89 333.561H322.74V333.811H381.89V333.561Z" fill="#EBEBEB"/>
<path d="M233.891 339.26H188.641V339.51H233.891V339.26Z" fill="#EBEBEB"/>
<path d="M139.68 337.68H124V337.93H139.68V337.68Z" fill="#EBEBEB"/>
<path d="M426.339 339.26H403.779V339.51H426.339V339.26Z" fill="#EBEBEB"/>
<path d="M118.17 337.561H64.9297V337.811H118.17V337.561Z" fill="#EBEBEB"/>
<path d="M237.001 282.8H43.9109C42.3983 282.797 40.9485 282.195 39.8798 281.124C38.8112 280.054 38.2109 278.603 38.2109 277.09V5.66C38.2241 4.15603 38.8301 2.71798 39.8974 1.65822C40.9646 0.598458 42.4069 0.00257639 43.9109 0H237.001C238.515 0 239.968 0.601588 241.039 1.67242C242.109 2.74325 242.711 4.19561 242.711 5.71V277.09C242.711 278.604 242.109 280.057 241.039 281.128C239.968 282.198 238.515 282.8 237.001 282.8ZM43.9109 0.200001C42.4646 0.20265 41.0784 0.779065 40.0566 1.80273C39.0348 2.82639 38.4609 4.21365 38.4609 5.66V277.09C38.4609 278.536 39.0348 279.924 40.0566 280.947C41.0784 281.971 42.4646 282.547 43.9109 282.55H237.001C238.447 282.545 239.833 281.968 240.856 280.945C241.879 279.922 242.456 278.536 242.461 277.09V5.66C242.456 4.21354 241.879 2.82783 240.856 1.80502C239.833 0.782211 238.447 0.20527 237.001 0.200001H43.9109Z" fill="#EBEBEB"/>
<path d="M453.31 282.8H260.21C258.697 282.795 257.248 282.191 256.178 281.122C255.109 280.052 254.505 278.603 254.5 277.09V5.66C254.516 4.15511 255.124 2.71708 256.193 1.65759C257.262 0.598109 258.705 0.00254829 260.21 0H453.31C454.812 0.0052045 456.252 0.602249 457.317 1.66173C458.382 2.72121 458.987 4.15775 459 5.66V277.09C459.001 277.839 458.855 278.58 458.57 279.272C458.285 279.964 457.866 280.593 457.338 281.123C456.809 281.654 456.182 282.075 455.491 282.362C454.799 282.65 454.059 282.799 453.31 282.8ZM260.21 0.200001C258.764 0.20527 257.378 0.782211 256.355 1.80502C255.332 2.82783 254.755 4.21354 254.75 5.66V277.09C254.755 278.536 255.332 279.922 256.355 280.945C257.378 281.968 258.764 282.545 260.21 282.55H453.31C454.756 282.545 456.142 281.968 457.165 280.945C458.188 279.922 458.765 278.536 458.77 277.09V5.66C458.765 4.21354 458.188 2.82783 457.165 1.80502C456.142 0.782211 454.756 0.20527 453.31 0.200001H260.21Z" fill="#EBEBEB"/>
<path d="M203.791 29.6309H77.5508V218.571H203.791V29.6309Z" fill="#E6E6E6"/>
<path d="M200.99 29.6309H74.75V218.571H200.99V29.6309Z" fill="#F5F5F5"/>
<path d="M195.949 35.2891H79.7793V212.919H195.949V35.2891Z" fill="white"/>
<path d="M81.9091 35.2793H79.7891V212.909H81.9091V35.2793Z" fill="#E6E6E6"/>
<path d="M198.9 157.801H76.8301V165.391H198.9V157.801Z" fill="#F5F5F5"/>
<path opacity="0.4" d="M198.91 21.0508H69.5098V59.9108H198.91V21.0508Z" fill="#F0F0F0"/>
<path d="M69.2592 20.2698H209.259C209.451 20.2793 209.632 20.359 209.769 20.4936C209.905 20.6283 209.987 20.8085 209.999 20.9998C209.999 21.2067 209.917 21.4051 209.771 21.5514C209.624 21.6977 209.426 21.7798 209.219 21.7798H69.2192C69.0141 21.7772 68.8183 21.6939 68.6741 21.5479C68.53 21.4019 68.4492 21.205 68.4492 20.9998C68.4646 20.7974 68.5573 20.6086 68.7081 20.4727C68.8589 20.3368 69.0563 20.2641 69.2592 20.2698Z" fill="#E6E6E6"/>
<path d="M64.6094 21.0009C64.6074 21.7683 64.833 22.519 65.2577 23.1582C65.6824 23.7973 66.2871 24.2962 66.9953 24.5917C67.7036 24.8872 68.4835 24.966 69.2365 24.8183C69.9895 24.6705 70.6818 24.3027 71.2259 23.7615C71.7699 23.2203 72.1412 22.5299 72.2929 21.7776C72.4445 21.0254 72.3697 20.245 72.0778 19.5353C71.786 18.8256 71.2903 18.2183 70.6533 17.7903C70.0163 17.3624 69.2668 17.1329 68.4994 17.1309C67.9899 17.1296 67.4851 17.2286 67.0138 17.4224C66.5426 17.6162 66.1141 17.9009 65.7529 18.2602C65.3917 18.6196 65.1048 19.0466 64.9086 19.5168C64.7124 19.9871 64.6107 20.4913 64.6094 21.0009Z" fill="#E6E6E6"/>
<path d="M202.749 25.3791C203.019 25.3794 203.279 25.2757 203.475 25.0895C203.67 24.9033 203.786 24.6489 203.799 24.3791V22.0891C203.786 21.8194 203.67 21.565 203.475 21.3788C203.279 21.1926 203.019 21.0888 202.749 21.0891C202.614 21.0824 202.478 21.1032 202.351 21.1504C202.224 21.1976 202.108 21.2702 202.01 21.3638C201.911 21.4573 201.833 21.5698 201.78 21.6945C201.726 21.8193 201.699 21.9535 201.699 22.0891V24.3891C201.699 24.6544 201.805 24.9087 201.992 25.0963C202.18 25.2838 202.434 25.3891 202.699 25.3891L202.749 25.3791Z" fill="#E6E6E6"/>
<path d="M81 25.3798C81.2652 25.3798 81.5196 25.2745 81.7071 25.087C81.8946 24.8994 82 24.6451 82 24.3798V22.0898C82 21.8246 81.8946 21.5703 81.7071 21.3827C81.5196 21.1952 81.2652 21.0898 81 21.0898C80.7348 21.0898 80.4804 21.1952 80.2929 21.3827C80.1054 21.5703 80 21.8246 80 22.0898V24.3398C80 24.6051 80.1054 24.8594 80.2929 25.047C80.4804 25.2345 80.7348 25.3398 81 25.3398V25.3798Z" fill="#E6E6E6"/>
<path d="M186.41 21.0009C186.408 21.7683 186.634 22.519 187.059 23.1582C187.483 23.7973 188.088 24.2962 188.796 24.5917C189.504 24.8872 190.284 24.966 191.037 24.8183C191.79 24.6705 192.483 24.3027 193.027 23.7615C193.571 23.2203 193.942 22.5299 194.094 21.7776C194.245 21.0254 194.17 20.245 193.879 19.5353C193.587 18.8256 193.091 18.2183 192.454 17.7903C191.817 17.3624 191.068 17.1329 190.3 17.1309C189.791 17.1296 189.286 17.2286 188.815 17.4224C188.343 17.6162 187.915 17.9009 187.554 18.2602C187.192 18.6196 186.906 19.0466 186.709 19.5168C186.513 19.9871 186.411 20.4913 186.41 21.0009Z" fill="#E6E6E6"/>
<path d="M429.231 241.301H392.711V322.261H429.231V241.301Z" fill="#E6E6E6"/>
<path d="M422.221 322.27H242.141V327.4H422.221V322.27Z" fill="#E6E6E6"/>
<path d="M392.709 241.311H235.119V322.271H392.709V241.311Z" fill="#F5F5F5"/>
<path d="M378.36 251.27H249.48V277.82H378.36V251.27Z" fill="#E6E6E6"/>
<path d="M378.36 285.75H249.48V312.3H378.36V285.75Z" fill="#E6E6E6"/>
<path d="M330.331 262.73H297.491C296.602 262.73 295.881 263.451 295.881 264.34V264.76C295.881 265.65 296.602 266.37 297.491 266.37H330.331C331.22 266.37 331.941 265.65 331.941 264.76V264.34C331.941 263.451 331.22 262.73 330.331 262.73Z" fill="#F5F5F5"/>
<path d="M330.331 297.199H297.491C296.602 297.199 295.881 297.92 295.881 298.809V299.229C295.881 300.118 296.602 300.839 297.491 300.839H330.331C331.22 300.839 331.941 300.118 331.941 299.229V298.809C331.941 297.92 331.22 297.199 330.331 297.199Z" fill="#F5F5F5"/>
<path d="M349.17 229.689C353.632 229.689 357.25 226.072 357.25 221.609C357.25 217.147 353.632 213.529 349.17 213.529C344.707 213.529 341.09 217.147 341.09 221.609C341.09 226.072 344.707 229.689 349.17 229.689Z" fill="#F5F5F5"/>
<path d="M334.589 227.86C339.035 227.86 342.639 224.256 342.639 219.81C342.639 215.364 339.035 211.76 334.589 211.76C330.143 211.76 326.539 215.364 326.539 219.81C326.539 224.256 330.143 227.86 334.589 227.86Z" fill="#F5F5F5"/>
<path d="M295.669 231.58C300.115 231.58 303.719 227.976 303.719 223.53C303.719 219.085 300.115 215.48 295.669 215.48C291.223 215.48 287.619 219.085 287.619 223.53C287.619 227.976 291.223 231.58 295.669 231.58Z" fill="#F5F5F5"/>
<path d="M316.419 235.299C320.865 235.299 324.469 231.695 324.469 227.249C324.469 222.803 320.865 219.199 316.419 219.199C311.973 219.199 308.369 222.803 308.369 227.249C308.369 231.695 311.973 235.299 316.419 235.299Z" fill="#F5F5F5"/>
<path d="M370.629 222.789C370.629 222.789 369.329 241.309 319.369 241.309C269.409 241.309 268.109 222.789 268.109 222.789H370.629Z" fill="#E6E6E6"/>
<path d="M200.5 243.33H182.27V322.39H200.5V243.33Z" fill="#E6E6E6"/>
<path d="M196.99 322.391H78.75V327.401H196.99V322.391Z" fill="#E6E6E6"/>
<path d="M182.26 243.33H75.25V322.39H182.26V243.33Z" fill="#F5F5F5"/>
<path d="M175.1 253.061H82.4199V278.991H175.1V253.061Z" fill="#E6E6E6"/>
<path d="M175.1 286.73H82.4199V312.66H175.1V286.73Z" fill="#E6E6E6"/>
<path d="M114.72 256.23H142.79C143.704 256.225 144.579 255.86 145.227 255.215C145.874 254.569 146.242 253.695 146.25 252.78C146.247 251.863 145.882 250.985 145.233 250.337C144.585 249.688 143.706 249.323 142.79 249.32H114.72C113.805 249.328 112.931 249.696 112.285 250.343C111.64 250.99 111.275 251.866 111.27 252.78C111.275 253.694 111.64 254.568 112.286 255.214C112.932 255.86 113.806 256.225 114.72 256.23Z" fill="#F5F5F5"/>
<path d="M114.72 289.9H142.79C143.706 289.898 144.585 289.532 145.233 288.884C145.882 288.236 146.247 287.357 146.25 286.44C146.242 285.526 145.874 284.651 145.227 284.006C144.579 283.36 143.704 282.995 142.79 282.99H114.72C113.806 282.995 112.932 283.361 112.286 284.007C111.64 284.652 111.275 285.527 111.27 286.44C111.275 287.355 111.64 288.23 112.285 288.878C112.931 289.525 113.805 289.892 114.72 289.9Z" fill="#F5F5F5"/>
<path d="M331.99 47.0391H279.65V153.579H331.99V47.0391Z" fill="#EBEBEB"/>
<path d="M330.859 47.0391H275.449V153.579H330.859V47.0391Z" fill="#F5F5F5"/>
<path d="M322.79 55.0996H283.5V145.52H322.79V55.0996Z" fill="white"/>
<path d="M430.08 103.73H401.42V136.75H430.08V103.73Z" fill="#EBEBEB"/>
<path d="M426.679 103.73H395.619V136.75H426.679V103.73Z" fill="#F5F5F5"/>
<path d="M424.08 106.34H398.23V134.15H424.08V106.34Z" fill="white"/>
<path d="M415.53 113.08H406.77C405.511 113.08 404.49 114.101 404.49 115.36V125.13C404.49 126.389 405.511 127.41 406.77 127.41H415.53C416.789 127.41 417.81 126.389 417.81 125.13V115.36C417.81 114.101 416.789 113.08 415.53 113.08Z" fill="#F0F0F0"/>
<path d="M406.98 57.7891H378.32V90.8091H406.98V57.7891Z" fill="#EBEBEB"/>
<path d="M403.589 57.7891H372.529V90.8091H403.589V57.7891Z" fill="#F5F5F5"/>
<path d="M400.991 60.3906H375.141V88.2006H400.991V60.3906Z" fill="white"/>
<path d="M392.44 67.1309H383.68C382.421 67.1309 381.4 68.1517 381.4 69.4109V79.1809C381.4 80.4401 382.421 81.4609 383.68 81.4609H392.44C393.7 81.4609 394.72 80.4401 394.72 79.1809V69.4109C394.72 68.1517 393.7 67.1309 392.44 67.1309Z" fill="#F0F0F0"/>
<path d="M249.999 372.56C357.082 372.56 443.889 367.492 443.889 361.24C443.889 354.988 357.082 349.92 249.999 349.92C142.917 349.92 56.1094 354.988 56.1094 361.24C56.1094 367.492 142.917 372.56 249.999 372.56Z" fill="#F5F5F5"/>
<path d="M325.58 71.3711H109.67V282.781H325.58V71.3711Z" fill="#FF223F"/>
<path opacity="0.7" d="M325.58 71.3711H109.67V282.781H325.58V71.3711Z" fill="black"/>
<path d="M320.04 78.1309H115.23V282.781H320.04V78.1309Z" fill="white"/>
<path d="M325.58 279.801V282.781H216.77L240.29 259.281L272.67 226.881L325.58 279.801Z" fill="#FF223F"/>
<path opacity="0.7" d="M325.58 279.801V282.781H216.77L240.29 259.281L272.67 226.881L325.58 279.801Z" fill="black"/>
<path d="M109.67 282.781V262.461L176.57 195.561L263.79 282.781H109.67Z" fill="#FF223F"/>
<path opacity="0.7" d="M109.67 282.781V262.461L176.57 195.561L263.79 282.781H109.67Z" fill="black"/>
<path d="M285.868 144.53C288.793 126.507 276.554 109.525 258.532 106.6C240.509 103.674 223.527 115.913 220.602 133.935C217.676 151.958 229.915 168.94 247.938 171.865C265.96 174.791 282.942 162.552 285.868 144.53Z" fill="#FF223F"/>
<path opacity="0.7" d="M285.868 144.53C288.793 126.507 276.554 109.525 258.532 106.6C240.509 103.674 223.527 115.913 220.602 133.935C217.676 151.958 229.915 168.94 247.938 171.865C265.96 174.791 282.942 162.552 285.868 144.53Z" fill="black"/>
<path d="M173.699 67.2109L153.143 277.619L368.029 298.613L388.586 88.205L173.699 67.2109Z" fill="#FF223F"/>
<path opacity="0.1" d="M173.699 67.1445L153.143 277.553L368.029 298.547L388.586 88.1386L173.699 67.1445Z" fill="black"/>
<path d="M178.577 74.4799L158.678 278.16L362.517 298.075L382.416 94.3947L178.577 74.4799Z" fill="white"/>
<path d="M364.617 82.3446L364.52 83.3398L371.666 84.038L371.763 83.0427L364.617 82.3446Z" fill="#FF223F"/>
<path d="M341.853 78.6593L341.754 79.6543L359.326 81.4114L359.426 80.4163L341.853 78.6593Z" fill="#FF223F"/>
<path opacity="0.1" d="M364.617 82.3446L364.52 83.3398L371.666 84.038L371.763 83.0427L364.617 82.3446Z" fill="black"/>
<path opacity="0.1" d="M341.853 78.6593L341.754 79.6543L359.326 81.4114L359.426 80.4163L341.853 78.6593Z" fill="black"/>
<path opacity="0.1" d="M368.309 295.63L368.018 298.6L259.729 288.02L285.419 266.92L320.798 237.82L368.309 295.63Z" fill="black"/>
<path d="M368.309 295.63L368.018 298.6L259.729 288.02L285.419 266.92L320.798 237.82L368.309 295.63Z" fill="#FF223F"/>
<path opacity="0.1" d="M368.309 295.63L368.018 298.6L259.729 288.02L285.419 266.92L320.798 237.82L368.309 295.63Z" fill="black"/>
<path opacity="0.1" d="M309.98 181.761C328.238 181.761 343.04 166.959 343.04 148.701C343.04 130.442 328.238 115.641 309.98 115.641C291.721 115.641 276.92 130.442 276.92 148.701C276.92 166.959 291.721 181.761 309.98 181.761Z" fill="black"/>
<path d="M309.98 181.761C328.238 181.761 343.04 166.959 343.04 148.701C343.04 130.442 328.238 115.641 309.98 115.641C291.721 115.641 276.92 130.442 276.92 148.701C276.92 166.959 291.721 181.761 309.98 181.761Z" fill="#FF223F"/>
<path opacity="0.1" d="M309.98 181.761C328.238 181.761 343.04 166.959 343.04 148.701C343.04 130.442 328.238 115.641 309.98 115.641C291.721 115.641 276.92 130.442 276.92 148.701C276.92 166.959 291.721 181.761 309.98 181.761Z" fill="black"/>
<path d="M292.759 95.1352L77.3086 109.219L91.0986 320.179L306.549 306.095L292.759 95.1352Z" fill="#FF223F"/>
<path d="M287.661 102.238L83.2871 115.598L96.6362 319.812L301.01 306.452L287.661 102.238Z" fill="white"/>
<path opacity="0.5" d="M292.759 95.1352L77.3086 109.219L91.0986 320.179L306.549 306.095L292.759 95.1352Z" fill="white"/>
<path d="M306.329 303.139L306.519 306.109L197.949 313.199L219.879 288.219L250.079 253.779L306.329 303.139Z" fill="#FF223F"/>
<path opacity="0.5" d="M306.329 303.139L306.519 306.109L197.949 313.199L219.879 288.219L250.079 253.779L306.329 303.139Z" fill="white"/>
<path d="M91.07 320.179L89.75 299.909L152.15 228.789L244.86 310.139L91.07 320.179Z" fill="#FF223F"/>
<path opacity="0.5" d="M91.07 320.179L89.75 299.909L152.15 228.789L244.86 310.139L91.07 320.179Z" fill="white"/>
<path d="M224.98 200.64C243.238 200.64 258.04 185.838 258.04 167.58C258.04 149.321 243.238 134.52 224.98 134.52C206.721 134.52 191.92 149.321 191.92 167.58C191.92 185.838 206.721 200.64 224.98 200.64Z" fill="#FF223F"/>
<path opacity="0.5" d="M224.98 200.64C243.238 200.64 258.04 185.838 258.04 167.58C258.04 149.321 243.238 134.52 224.98 134.52C206.721 134.52 191.92 149.321 191.92 167.58C191.92 185.838 206.721 200.64 224.98 200.64Z" fill="white"/>
<path d="M390.629 145.92C391.339 147.23 391.929 148.39 392.509 149.65C393.089 150.91 393.659 152.12 394.209 153.37C395.279 155.87 396.279 158.37 397.209 161.02C398.122 163.644 398.896 166.315 399.529 169.02L399.999 171.08L400.379 173.17C400.519 173.87 400.599 174.59 400.699 175.3L400.839 176.38V177.09C400.859 177.423 400.859 177.757 400.839 178.09C400.76 179.999 400.319 181.876 399.539 183.62C398.936 185.018 398.241 186.374 397.459 187.68C396.003 190.068 394.389 192.356 392.629 194.53C389.244 198.736 385.536 202.671 381.539 206.3L377.459 202.64C380.369 198.44 383.259 194.1 385.859 189.8C387.132 187.708 388.297 185.551 389.349 183.34C389.823 182.346 390.227 181.32 390.559 180.27C390.808 179.595 390.93 178.879 390.919 178.16V177.94L390.729 177.08C390.609 176.5 390.499 175.93 390.329 175.35L389.869 173.61L389.359 171.86C388.629 169.53 387.819 167.2 386.909 164.86C385.999 162.52 385.039 160.23 384.029 157.94C383.019 155.65 381.909 153.31 380.889 151.2L390.629 145.92Z" fill="#EEC1BB"/>
<path d="M402.099 163.409L388.489 170.599L385.209 172.339C385.209 172.339 384.439 170.089 383.349 166.819C382.469 164.209 381.349 160.959 380.289 157.669C379.949 156.669 379.609 155.599 379.289 154.579C379.189 154.289 379.089 154.009 378.999 153.719C376.059 144.719 384.219 140.669 389.769 141.829C399.269 143.819 402.099 163.409 402.099 163.409Z" fill="#FF223F"/>
<path opacity="0.7" d="M402.099 163.409L388.489 170.599L385.209 172.339C385.209 172.339 384.439 170.089 383.349 166.819C382.469 164.209 381.349 160.959 380.289 157.669C379.949 156.669 379.609 155.599 379.289 154.579C379.189 154.289 379.089 154.009 378.999 153.719C376.059 144.719 384.219 140.669 389.769 141.829C399.269 143.819 402.099 163.409 402.099 163.409Z" fill="white"/>
<path d="M388.489 170.599L385.209 172.339C385.209 172.339 384.439 170.089 383.349 166.819C382.469 164.209 381.349 160.959 380.289 157.669C379.949 156.669 379.609 155.599 379.289 154.579L386.789 153.109C386.789 153.109 387.809 164.999 388.489 170.599Z" fill="#FF223F"/>
<path opacity="0.6" d="M388.489 170.599L385.209 172.339C385.209 172.339 384.439 170.089 383.349 166.819C382.469 164.209 381.349 160.959 380.289 157.669C379.949 156.669 379.609 155.599 379.289 154.579L386.789 153.109C386.789 153.109 387.809 164.999 388.489 170.599Z" fill="white"/>
<path d="M379.119 201.5L372.119 203.83L378.469 210.64C378.469 210.64 383.999 207.33 382.579 204.2L379.119 201.5Z" fill="#EEC1BB"/>
<path d="M367.289 210.1L372.789 215.39L378.449 210.64L372.099 203.83L367.289 210.1Z" fill="#EEC1BB"/>
<path d="M328.95 345.729L321.69 345.189L321.01 328.219L328.27 328.759L328.95 345.729Z" fill="#EEC1BB"/>
<path d="M375.4 352.21H368.11L362.43 335.33H369.72L375.4 352.21Z" fill="#EEC1BB"/>
<path d="M321.01 328.229L321.36 336.979L328.63 337.518L328.28 328.768L321.01 328.229Z" fill="#DB9792"/>
<path d="M369.72 335.34H362.43L365.36 344.04H372.65L369.72 335.34Z" fill="#DB9792"/>
<path d="M375.28 342.35H361.93C361.93 342.35 348.93 297.63 345.66 274.48C344.96 269.48 345.37 262.88 346.42 255.72C348.21 243.47 351.83 229.56 354.84 219.18C357.52 209.95 359.73 203.5 359.73 203.5L384.82 205.37C383.46 223.58 365.44 253.48 366.69 278.19C367.84 301 375.28 342.35 375.28 342.35Z" fill="#FF223F"/>
<path opacity="0.7" d="M375.28 342.35H361.93C361.93 342.35 348.93 297.63 345.66 274.48C344.96 269.48 345.37 262.88 346.42 255.72C348.21 243.47 351.83 229.56 354.84 219.18C357.52 209.95 359.73 203.5 359.73 203.5L384.82 205.37C383.46 223.58 365.44 253.48 366.69 278.19C367.84 301 375.28 342.35 375.28 342.35Z" fill="black"/>
<path d="M378.93 121.219C377.37 126.419 375.36 136.039 378.72 139.939C378.72 139.939 376.72 145.179 366.88 144.199C356.04 143.119 362.24 138.309 362.24 138.309C368.29 137.479 368.58 133.079 367.95 128.849L378.93 121.219Z" fill="#EEC1BB"/>
<path d="M360.449 113.349C360.389 113.929 360.029 114.349 359.649 114.349C359.269 114.349 359.009 113.809 359.059 113.219C359.109 112.629 359.479 112.219 359.859 112.219C360.239 112.219 360.509 112.759 360.449 113.349Z" fill="#263238"/>
<path d="M360.429 113.639C359.558 115.358 358.451 116.947 357.139 118.359C357.509 118.686 357.945 118.927 358.419 119.067C358.892 119.207 359.391 119.242 359.879 119.169L360.429 113.639Z" fill="#D4827D"/>
<path d="M362.689 111.419C362.629 111.42 362.569 111.405 362.516 111.375C362.463 111.345 362.42 111.302 362.389 111.249C362.174 110.875 361.874 110.556 361.512 110.32C361.151 110.083 360.739 109.936 360.309 109.889C360.217 109.884 360.131 109.844 360.068 109.777C360.004 109.71 359.969 109.621 359.969 109.529C359.967 109.487 359.973 109.444 359.987 109.404C360.001 109.364 360.024 109.328 360.053 109.297C360.082 109.266 360.117 109.241 360.156 109.225C360.195 109.208 360.237 109.199 360.279 109.199H360.329C360.874 109.247 361.4 109.425 361.861 109.72C362.323 110.014 362.706 110.415 362.979 110.889C363.028 110.968 363.044 111.062 363.023 111.152C363.002 111.242 362.947 111.32 362.869 111.369C362.814 111.4 362.752 111.417 362.689 111.419Z" fill="#263238"/>
<path d="M367.14 351.36H376C376.145 351.359 376.286 351.408 376.399 351.499C376.512 351.59 376.59 351.718 376.62 351.86L378.06 358.34C378.089 358.478 378.091 358.62 378.065 358.759C378.039 358.897 377.986 359.029 377.909 359.147C377.832 359.265 377.732 359.367 377.616 359.446C377.499 359.526 377.368 359.581 377.23 359.61H376.99C374.14 359.56 372.05 359.4 368.45 359.4C366.24 359.4 361.67 359.63 358.61 359.63C355.55 359.63 355.16 356.63 356.41 356.33C362.02 355.1 364.14 353.41 365.93 351.79C366.268 351.505 366.698 351.352 367.14 351.36Z" fill="#263238"/>
<path d="M321.339 343.559L329.279 344.149C329.423 344.163 329.558 344.224 329.663 344.324C329.768 344.424 329.837 344.556 329.859 344.699L330.809 351.259C330.831 351.396 330.827 351.537 330.795 351.672C330.763 351.808 330.704 351.935 330.622 352.048C330.54 352.161 330.437 352.256 330.318 352.328C330.199 352.4 330.066 352.448 329.929 352.469C329.842 352.479 329.755 352.479 329.669 352.469C326.809 352.199 322.669 351.729 319.089 351.469C314.879 351.159 312.089 351.009 307.149 350.639C304.149 350.419 303.569 347.339 304.829 347.159C310.609 346.339 314.409 346.659 319.549 343.999C320.093 343.689 320.713 343.537 321.339 343.559Z" fill="#263238"/>
<path d="M346.379 144.74C345.719 145.87 344.929 147.16 344.199 148.38C343.469 149.6 342.669 150.84 341.879 152.05C340.309 154.48 338.679 156.86 336.989 159.16C335.299 161.46 333.539 163.68 331.689 165.75C330.097 167.552 328.365 169.224 326.509 170.75C324.967 171.107 323.398 171.334 321.819 171.43C319.812 171.531 317.799 171.41 315.819 171.07C312.725 170.529 309.727 169.538 306.919 168.13C306.449 167.89 305.989 167.63 305.539 167.37L304.279 166.62L300.469 170.54C301.009 171.16 301.419 171.54 301.909 172.06C302.375 172.519 302.866 172.953 303.379 173.36C304.379 174.202 305.431 174.98 306.529 175.69C308.766 177.121 311.17 178.269 313.689 179.11C316.26 179.961 318.927 180.489 321.629 180.68C324.351 180.849 327.084 180.691 329.769 180.21L330.599 180.06L331.549 179.44C334.346 177.573 336.94 175.418 339.289 173.01C341.553 170.738 343.677 168.33 345.649 165.8C347.649 163.32 349.429 160.75 351.159 158.14C352.019 156.81 352.849 155.47 353.659 154.14C354.469 152.81 355.239 151.48 356.039 149.98L346.379 144.74Z" fill="#EEC1BB"/>
<path d="M307.59 169L302.15 164.24L298 171.42C298 171.42 301.87 175.76 306.42 173.03L307.59 169Z" fill="#EEC1BB"/>
<path d="M294.579 161.119L291.689 167.689L297.959 171.419L302.149 164.279L294.579 161.119Z" fill="#EEC1BB"/>
<path d="M380.359 113.3C379.199 120.44 378.889 124.67 374.899 128C368.899 133 360.349 128.83 359.349 121.49C358.449 114.89 360.489 104.32 367.799 102.16C369.41 101.677 371.118 101.614 372.76 101.976C374.403 102.338 375.925 103.114 377.184 104.23C378.442 105.346 379.394 106.765 379.95 108.352C380.506 109.94 380.647 111.643 380.359 113.3Z" fill="#EEC1BB"/>
<path d="M388.439 109.539C393.779 113.279 381.069 126.999 376.549 126.849C372.029 126.699 363.549 114.169 366.329 107.499C363.999 106.559 363.249 106.249 362.329 103.869C360.609 99.5593 362.679 92.3693 373.239 94.3893C370.619 96.1693 372.439 97.5793 377.409 96.8893C375.409 99.2193 378.689 100.939 383.519 99.9393C382.669 104.219 393.439 104.829 388.439 109.539Z" fill="#263238"/>
<path d="M370.309 115.509C369.97 117.294 368.943 118.875 367.449 119.909C365.449 121.259 363.689 119.659 363.609 117.369C363.539 115.319 364.489 112.139 366.799 111.709C367.607 111.573 368.435 111.763 369.103 112.237C369.77 112.712 370.222 113.432 370.359 114.239C370.428 114.661 370.411 115.093 370.309 115.509Z" fill="#EEC1BB"/>
<path opacity="0.4" d="M361.48 224.439C361.34 236.559 352.82 249.949 346.42 255.719C348.21 243.469 351.83 229.559 354.84 219.179C356.71 218.799 359.92 222.349 361.48 224.439Z" fill="black"/>
<path d="M364.73 352.639C364.234 352.676 363.739 352.542 363.33 352.259C363.197 352.15 363.094 352.01 363.031 351.851C362.968 351.691 362.947 351.518 362.97 351.349C362.97 351.248 362.997 351.15 363.048 351.064C363.099 350.978 363.172 350.907 363.26 350.859C364.08 350.459 366.42 351.859 366.69 352.059C366.716 352.078 366.736 352.104 366.748 352.134C366.761 352.164 366.765 352.197 366.76 352.229C366.756 352.263 366.742 352.295 366.718 352.32C366.695 352.345 366.664 352.362 366.63 352.369C366.011 352.538 365.372 352.629 364.73 352.639ZM363.65 351.129C363.575 351.109 363.495 351.109 363.42 351.129C363.386 351.149 363.358 351.179 363.338 351.214C363.319 351.249 363.309 351.289 363.31 351.329C363.296 351.445 363.31 351.564 363.352 351.673C363.394 351.783 363.462 351.881 363.55 351.959C364.362 352.33 365.285 352.377 366.13 352.089C365.374 351.602 364.532 351.263 363.65 351.089V351.129Z" fill="#FF223F"/>
<path d="M366.59 352.378H366.51C365.76 351.968 364.3 350.378 364.45 349.558C364.476 349.431 364.544 349.317 364.645 349.235C364.745 349.153 364.871 349.108 365 349.108C365.132 349.088 365.267 349.097 365.395 349.135C365.523 349.173 365.641 349.239 365.74 349.328C366.58 350.018 366.74 352.118 366.74 352.208C366.739 352.239 366.732 352.27 366.718 352.297C366.704 352.325 366.684 352.349 366.66 352.368L366.59 352.378ZM365.12 349.378H365.05C364.82 349.378 364.8 349.508 364.79 349.548C364.7 350.028 365.63 351.238 366.38 351.808C366.325 350.98 366.026 350.187 365.52 349.528C365.405 349.443 365.263 349.403 365.12 349.418V349.378Z" fill="#FF223F"/>
<path d="M318.85 344.629C318.016 344.72 317.178 344.507 316.49 344.029C316.382 343.916 316.303 343.779 316.258 343.63C316.212 343.48 316.203 343.323 316.23 343.169C316.239 343.074 316.274 342.983 316.33 342.906C316.386 342.828 316.462 342.767 316.55 342.729C317.47 342.309 320.28 343.999 320.6 344.199C320.629 344.218 320.652 344.245 320.666 344.277C320.681 344.309 320.685 344.344 320.68 344.379C320.671 344.414 320.652 344.446 320.625 344.471C320.599 344.496 320.565 344.512 320.53 344.519C319.972 344.59 319.411 344.627 318.85 344.629ZM316.93 342.999C316.85 343 316.772 343.017 316.7 343.049C316.665 343.063 316.634 343.086 316.611 343.116C316.588 343.146 316.574 343.182 316.57 343.219C316.549 343.321 316.553 343.426 316.583 343.525C316.613 343.625 316.667 343.715 316.74 343.789C317.16 344.219 318.35 344.379 319.97 344.229C319.044 343.629 318.012 343.212 316.93 342.999Z" fill="#FF223F"/>
<path d="M320.51 344.52H320.42C319.58 344.06 317.96 342.36 318.15 341.52C318.2 341.33 318.35 341.1 318.83 341.08C319.176 341.078 319.51 341.21 319.76 341.45C320.357 342.292 320.678 343.298 320.68 344.33C320.68 344.36 320.673 344.389 320.659 344.415C320.645 344.441 320.625 344.464 320.6 344.48L320.51 344.52ZM318.87 341.44C318.55 341.44 318.53 341.57 318.52 341.61C318.4 342.09 319.52 343.42 320.34 344.02C320.324 343.187 320.048 342.379 319.55 341.71C319.461 341.621 319.355 341.551 319.238 341.505C319.121 341.458 318.996 341.436 318.87 341.44Z" fill="#FF223F"/>
<path d="M346 202.479C346 202.479 314.52 250.099 313.66 272.319C312.77 295.429 318.81 335.089 318.81 335.089L331.12 336.009C331.12 336.009 332.55 298.289 334.78 275.689C337.21 251.059 372.78 223.608 374.18 204.578L346 202.479Z" fill="#FF223F"/>
<path opacity="0.7" d="M346 202.479C346 202.479 314.52 250.099 313.66 272.319C312.77 295.429 318.81 335.089 318.81 335.089L331.12 336.009C331.12 336.009 332.55 298.289 334.78 275.689C337.21 251.059 372.78 223.608 374.18 204.578L346 202.479Z" fill="black"/>
<path d="M359.57 342.639H377.02V337.939L357.52 337.639L359.57 342.639Z" fill="#FF223F"/>
<path d="M316.289 335.16L333.379 336.47L333.739 331.73L314.609 330.02L316.289 335.16Z" fill="#FF223F"/>
<path d="M359.569 148.089C359.049 155.029 350.829 168.559 350.829 168.559L332.219 158.779C332.219 158.779 338.519 148.649 345.409 142.619C352.299 136.589 360.139 140.459 359.569 148.089Z" fill="#FF223F"/>
<path opacity="0.7" d="M359.569 148.089C359.049 155.029 350.829 168.559 350.829 168.559L332.219 158.779C332.219 158.779 338.519 148.649 345.409 142.619C352.299 136.589 360.139 140.459 359.569 148.089Z" fill="white"/>
<path d="M360.13 140.139C360.63 139.139 359.91 135.579 359.91 135.579C359.91 135.579 375.38 133.499 380.91 135.469C383.91 136.529 381.27 141.879 381.27 141.879L360.13 140.139Z" fill="#FF223F"/>
<path opacity="0.7" d="M360.13 140.139C360.63 139.139 359.91 135.579 359.91 135.579C359.91 135.579 375.38 133.499 380.91 135.469C383.91 136.529 381.27 141.879 381.27 141.879L360.13 140.139Z" fill="black"/>
<path d="M384.81 205.37L346 202.48C344.732 192.707 344.287 182.846 344.67 173C344.83 169.46 345.11 166.2 345.45 163.22C347.25 147.63 351.05 139.71 351.05 139.71C354.786 139.019 358.571 138.621 362.37 138.52C367.896 138.609 373.412 139.02 378.89 139.75C382.861 140.257 386.793 141.032 390.66 142.07C382.81 169.75 385.52 199.42 384.81 205.37Z" fill="#FF223F"/>
<path opacity="0.7" d="M384.81 205.37L346 202.48C344.732 192.707 344.287 182.846 344.67 173C344.83 169.46 345.11 166.2 345.45 163.22C347.25 147.63 351.05 139.71 351.05 139.71C354.786 139.019 358.571 138.621 362.37 138.52C367.896 138.609 373.412 139.02 378.89 139.75C382.861 140.257 386.793 141.032 390.66 142.07C382.81 169.75 385.52 199.42 384.81 205.37Z" fill="white"/>
</g>
<defs>
<filter id="filter0_d_1947_9450" x="-4" y="0" width="508" height="380.561" filterUnits="userSpaceOnUse" color-interpolation-filters="sRGB">
<feFlood flood-opacity="0" result="BackgroundImageFix"/>
<feColorMatrix in="SourceAlpha" type="matrix" values="0 0 0 0 0 0 0 0 0 0 0 0 0 0 0 0 0 0 127 0" result="hardAlpha"/>
<feOffset dy="4"/>
<feGaussianBlur stdDeviation="2"/>
<feComposite in2="hardAlpha" operator="out"/>
<feColorMatrix type="matrix" values="0 0 0 0 0 0 0 0 0 0 0 0 0 0 0 0 0 0 0.25 0"/>
<feBlend mode="normal" in2="BackgroundImageFix" result="effect1_dropShadow_1947_9450"/>
<feBlend mode="normal" in="SourceGraphic" in2="effect1_dropShadow_1947_9450" result="shape"/>
</filter>
</defs>
</svg>
